<?xml version="1.0" encoding="UTF-8" standalone="no"?>
<svg
   xmlns:dc="http://purl.org/dc/elements/1.1/"
   xmlns:cc="http://creativecommons.org/ns#"
   xmlns:rdf="http://www.w3.org/1999/02/22-rdf-syntax-ns#"
   xmlns:svg="http://www.w3.org/2000/svg"
   xmlns="http://www.w3.org/2000/svg"
   xmlns:sodipodi="http://sodipodi.sourceforge.net/DTD/sodipodi-0.dtd"
   xmlns:inkscape="http://www.inkscape.org/namespaces/inkscape"
   width="493.8425"
   height="348.5303"
   viewBox="0 0 5.4871388 3.8725591"
   version="1.1"
   id="svg2"
   inkscape:version="0.48.2 r9819"
   sodipodi:docname="BottomFoxBlock.svg">
  <metadata
     id="metadata15">
    <rdf:RDF>
      <cc:Work
         rdf:about="">
        <dc:format>image/svg+xml</dc:format>
        <dc:type
           rdf:resource="http://purl.org/dc/dcmitype/StillImage" />
      </cc:Work>
    </rdf:RDF>
  </metadata>
  <defs
     id="defs13" />
  <sodipodi:namedview
     pagecolor="#ffffff"
     bordercolor="#666666"
     borderopacity="1"
     objecttolerance="10"
     gridtolerance="10"
     guidetolerance="10"
     inkscape:pageopacity="0"
     inkscape:pageshadow="2"
     inkscape:window-width="1724"
     inkscape:window-height="1144"
     id="namedview11"
     showgrid="true"
     inkscape:document-units="in"
     units="in"
     fit-margin-top="0.5"
     fit-margin-right="0.5"
     fit-margin-bottom="0.5"
     fit-margin-left="0.5"
     inkscape:zoom="1.2941477"
     inkscape:cx="233.90294"
     inkscape:cy="301.63864"
     inkscape:window-x="785"
     inkscape:window-y="258"
     inkscape:window-maximized="0"
     inkscape:current-layer="svg2">
    <inkscape:grid
       type="xygrid"
       id="grid3768"
       units="in"
       empspacing="5"
       visible="false"
       enabled="true"
       snapvisiblegridlinesonly="true"
       spacingx="0.001in"
       spacingy="0.001in"
       dotted="false" />
  </sodipodi:namedview>
  <desc
     id="desc4">Output from Flights of Ideas SVG Sketchup Plugin</desc>
  <path
     style="fill:none;stroke:#0000ff;stroke-width:0.08999995;stroke-linecap:round;stroke-linejoin:round;stroke-miterlimit:4;stroke-dasharray:none"
     d="M 45.0625 45.0625 L 45.0625 303.46875 L 448.78125 303.46875 L 448.78125 45.0625 L 383.75 45.0625 L 383.75 70.96875 C 384.77434 71.978286 385.40625 73.384704 385.40625 74.9375 C 385.40625 76.482376 384.76516 77.866613 383.75 78.875 C 382.74533 79.87297 381.37079 80.5 379.84375 80.5 C 378.30874 80.5 376.91219 79.882175 375.90625 78.875 L 334.84375 78.875 C 333.84198 79.844223 332.50488 80.46875 331 80.46875 C 329.49512 80.46875 328.12677 79.844223 327.125 78.875 L 327.0625 78.875 L 327.0625 78.8125 C 326.05533 77.806562 325.40625 76.44126 325.40625 74.90625 C 325.40625 73.37124 326.05533 71.974688 327.0625 70.96875 L 327.0625 45.0625 L 154.84375 45.0625 L 154.84375 71.0625 C 155.83204 72.067191 156.46875 73.447198 156.46875 74.96875 C 156.46875 76.490302 155.83204 77.870309 154.84375 78.875 C 153.83553 79.899955 152.45659 80.53125 150.90625 80.53125 C 149.35591 80.53125 147.94572 79.899955 146.9375 78.875 L 106.09375 78.875 C 105.0841 79.90024 103.67857 80.53125 102.125 80.53125 C 100.57209 80.53125 99.165802 79.899469 98.15625 78.875 C 97.167514 77.871654 96.5625 76.51902 96.5625 75 C 96.5625 73.48098 97.167514 72.097096 98.15625 71.09375 L 98.15625 45.0625 L 45.0625 45.0625 z "
     transform="matrix(0.01111111,0,0,0.01111111,-1.5609375e-7,0)"
     id="face2-cut" />
</svg>
