<?xml version="1.0" encoding="UTF-8" standalone="no"?>
<svg
   xmlns:dc="http://purl.org/dc/elements/1.1/"
   xmlns:cc="http://creativecommons.org/ns#"
   xmlns:rdf="http://www.w3.org/1999/02/22-rdf-syntax-ns#"
   xmlns:svg="http://www.w3.org/2000/svg"
   xmlns="http://www.w3.org/2000/svg"
   xmlns:sodipodi="http://sodipodi.sourceforge.net/DTD/sodipodi-0.dtd"
   xmlns:inkscape="http://www.inkscape.org/namespaces/inkscape"
   width="295.76318"
   height="492.63818"
   viewBox="0 0 3.2862576 5.4737573"
   version="1.1"
   id="svg2"
   inkscape:version="0.48.2 r9819"
   sodipodi:docname="idlerTensioner.svg">
  <metadata
     id="metadata22">
    <rdf:RDF>
      <cc:Work
         rdf:about="">
        <dc:format>image/svg+xml</dc:format>
        <dc:type
           rdf:resource="http://purl.org/dc/dcmitype/StillImage" />
      </cc:Work>
    </rdf:RDF>
  </metadata>
  <defs
     id="defs20" />
  <sodipodi:namedview
     pagecolor="#ffffff"
     bordercolor="#666666"
     borderopacity="1"
     objecttolerance="10"
     gridtolerance="10"
     guidetolerance="10"
     inkscape:pageopacity="0"
     inkscape:pageshadow="2"
     inkscape:window-width="1471"
     inkscape:window-height="1228"
     id="namedview18"
     showgrid="false"
     units="in"
     inkscape:document-units="in"
     inkscape:zoom="1.0990662"
     inkscape:cx="332.75771"
     inkscape:cy="60.967013"
     inkscape:window-x="877"
     inkscape:window-y="165"
     inkscape:window-maximized="0"
     inkscape:current-layer="svg2"
     showguides="true"
     inkscape:guide-bbox="true"
     fit-margin-right="0.5"
     fit-margin-top="0.5"
     fit-margin-left="0.5"
     fit-margin-bottom="0.5" />
  <desc
     id="desc4">Output from Flights of Ideas SVG Sketchup Plugin</desc>
  <path
     style="fill:none;stroke:#0000ff;stroke-width:0.001;stroke-linecap:round;stroke-linejoin:round;stroke-miterlimit:4;stroke-dasharray:none"
     d="m 2.222142,2.428839 -0.5016844,5e-7 -1.4e-6,0.2000005 0.1,0 c 0.04519,0.00308 0.061897,0.02966 0.061879,0.06962 l 0,0.063443 c -0.00361,0.037612 -0.0261,0.065067 -0.061879,0.066936 l -0.1,0 0,0.2 0.5016844,0 0.5016843,0 0,-0.2 -0.1,0 C 2.5880459,2.82697 2.5655559,2.799515 2.5619459,2.761903 l 0,-0.063443 c -1.8e-5,-0.03996 0.016689,-0.06654 0.061879,-0.06962 l 0.1,0 1e-7,-0.2000005 z"
     id="path3807"
     inkscape:connector-curvature="0"
     sodipodi:nodetypes="ccccccccccccccccccc" />
  <path
     inkscape:connector-curvature="0"
     style="fill:none;stroke:#0000ff;stroke-width:0.001;stroke-linecap:round;stroke-linejoin:round;stroke-miterlimit:4;stroke-dasharray:none"
     d="m 2.7238249,2.2774491 0,-1.73813999 -1,0 0,1.73813999 1,0"
     id="path3881" />
  <path
     inkscape:connector-curvature="0"
     style="fill:none;stroke:#0000ff;stroke-width:0.001;stroke-linecap:round;stroke-linejoin:round;stroke-miterlimit:4;stroke-dasharray:none"
     d="m 2.3188963,0.9638391 0.00335,0.0255 -0.00335,0.0255 -0.00983,0.0237 -0.015642,0.0204 -0.020385,0.0156 -0.023738,0.01 -0.02548,0.003 -0.025474,-0.003 -0.023738,-0.01 -0.020385,-0.0156 -0.015642,-0.0204 -0.00983,-0.0237 -0.00335,-0.0255 0.00335,-0.0255 0.00983,-0.0237 0.015642,-0.0204 0.020385,-0.0156 0.023738,-0.01 0.025478,-0.00325 0.025474,0.003 0.023738,0.01 0.020385,0.0156 0.015642,0.0204 0.00983,0.0237"
     id="path3805" />
  <path
     inkscape:connector-curvature="0"
     style="fill:none;stroke:#0000ff;stroke-width:0.001;stroke-linecap:round;stroke-linejoin:round;stroke-miterlimit:4;stroke-dasharray:none"
     d="m 2.166782,2.713558 0.0059,-0.0142 0.00938,-0.0122 0.012231,-0.009 0.014243,-0.006 0.015284,-0.00237 0.015285,0.002 0.014243,0.006 0.012231,0.009 0.00938,0.0122 0.0059,0.0142 0.00201,0.0153 -0.00201,0.0153 -0.0059,0.0142 -0.00938,0.0122 -0.012231,0.009 -0.014243,0.006 -0.015285,0.002 -0.015285,-0.002 -0.014243,-0.006 -0.012231,-0.009 -0.00938,-0.0122 -0.0059,-0.0142 -0.00201,-0.0153 0.00201,-0.0153"
     id="path3811" />
  <path
     inkscape:connector-curvature="0"
     style="fill:none;stroke:#0000ff;stroke-width:0.001;stroke-linecap:round;stroke-linejoin:round;stroke-miterlimit:4;stroke-dasharray:none"
     d="m 1.7238249,3.1802269 0,1.73814 1,0 0,-1.73814 -1,0"
     id="path3877" />
  <path
     inkscape:connector-curvature="0"
     style="fill:none;stroke:#0000ff;stroke-width:0.001;stroke-linecap:round;stroke-linejoin:round;stroke-miterlimit:4;stroke-dasharray:none"
     d="m 2.1287535,4.4938369 -0.00335,-0.0255 0.00335,-0.0255 0.00983,-0.0237 0.015642,-0.0204 0.020385,-0.0156 0.023738,-0.01 0.025474,-0.0032 0.025474,0.003 0.023738,0.01 0.020385,0.0156 0.015642,0.0204 0.00983,0.0237 0.00335,0.0255 -0.00335,0.0255 -0.00983,0.0237 -0.015642,0.0204 -0.020385,0.0156 -0.023738,0.01 -0.025474,0.003 -0.025474,-0.003 -0.023738,-0.01 -0.020385,-0.0156 -0.015642,-0.0204 -0.00983,-0.0237"
     id="path3813" />
  <path
     inkscape:connector-curvature="0"
     style="fill:none;stroke:#0000ff;stroke-width:0.001;stroke-linecap:round;stroke-linejoin:round;stroke-miterlimit:4;stroke-dasharray:none"
     d="m 1.5690671,2.2774491 0,-1.73813999 -1.0000001,0 0,1.73813999 1.0000001,0"
     id="path3862" />
  <path
     inkscape:connector-curvature="0"
     style="fill:none;stroke:#0000ff;stroke-width:0.001;stroke-linecap:round;stroke-linejoin:round;stroke-miterlimit:4;stroke-dasharray:none"
     d="m 1.1641383,0.9638391 0.00335,0.0255 -0.00335,0.0255 -0.00983,0.0237 -0.015642,0.0204 -0.020385,0.0156 -0.023738,0.01 -0.02548,0.003 -0.025474,-0.003 -0.023738,-0.01 -0.0203845,-0.0156 -0.0156416,-0.0204 -0.009833,-0.0237 -0.003354,-0.0255 0.003354,-0.0255 0.009833,-0.0237 0.0156416,-0.0204 0.0203845,-0.0156 0.023738,-0.01 0.025478,-0.00325 0.025474,0.003 0.023738,0.01 0.020385,0.0156 0.015642,0.0204 0.00983,0.0237"
     id="face0-cut" />
  <path
     inkscape:connector-curvature="0"
     style="fill:none;stroke:#0000ff;stroke-width:0.001;stroke-linecap:round;stroke-linejoin:round;stroke-miterlimit:4;stroke-dasharray:none"
     d="m 0.56569828,2.62884 0.1,0 c 0.04519,0.00308 0.061897,0.02966 0.061879,0.06962 l 0,0.063443 c -0.00361,0.037612 -0.0261,0.065067 -0.061879,0.066936 l -0.1,0 0,0.2 0.50168442,0 0.5016842,0 0,-0.2 -0.1,0 C 1.4332879,2.826969 1.4107979,2.799515 1.4071879,2.761903 l 0,-0.063443 c -1.8e-5,-0.03996 0.016689,-0.06654 0.061879,-0.06962 l 0.1,0 2e-7,-0.2000005 -0.5016829,-5e-7 -0.50168452,5e-7 z"
     id="path3003"
     sodipodi:nodetypes="ccccccccccccccccccc" />
  <path
     inkscape:connector-curvature="0"
     style="fill:none;stroke:#0000ff;stroke-width:0.001;stroke-linecap:round;stroke-linejoin:round;stroke-miterlimit:4;stroke-dasharray:none"
     d="m 1.0120241,2.713558 0.0059,-0.0142 0.00938,-0.0122 0.012231,-0.009 0.014243,-0.006 0.015284,-0.00237 0.015285,0.002 0.014243,0.006 0.012231,0.009 0.00938,0.0122 0.0059,0.0142 0.00201,0.0153 -0.00201,0.0153 -0.0059,0.0142 -0.00938,0.0122 -0.012231,0.009 -0.014243,0.006 -0.015285,0.002 -0.015285,-0.002 -0.014243,-0.006 -0.012231,-0.009 -0.00938,-0.0122 -0.0059,-0.0142 -0.00201,-0.0153 0.00201,-0.0153"
     id="face1-cut" />
  <path
     inkscape:connector-curvature="0"
     style="fill:none;stroke:#0000ff;stroke-width:0.001;stroke-linecap:round;stroke-linejoin:round;stroke-miterlimit:4;stroke-dasharray:none"
     d="m 0.569067,3.1802269 0,1.73814 0.9999999,0 0,-1.73814 -0.9999999,0"
     id="path3866" />
  <path
     inkscape:connector-curvature="0"
     style="fill:none;stroke:#0000ff;stroke-width:0.001;stroke-linecap:round;stroke-linejoin:round;stroke-miterlimit:4;stroke-dasharray:none"
     d="m 0.97399556,4.4938369 -0.003354,-0.0255 0.003354,-0.0255 0.009833,-0.0237 0.0156416,-0.0204 0.0203845,-0.0156 0.023738,-0.01 0.025474,-0.0032 0.025474,0.003 0.023738,0.01 0.020385,0.0156 0.015642,0.0204 0.00983,0.0237 0.00335,0.0255 -0.00335,0.0255 -0.00983,0.0237 -0.015642,0.0204 -0.020385,0.0156 -0.023738,0.01 -0.025474,0.003 -0.025474,-0.003 -0.023738,-0.01 -0.0203845,-0.0156 -0.0156416,-0.0204 -0.009833,-0.0237"
     id="face2-cut" />
</svg>
