<?xml version="1.0" encoding="UTF-8" standalone="no"?>
<svg
   xmlns:dc="http://purl.org/dc/elements/1.1/"
   xmlns:cc="http://creativecommons.org/ns#"
   xmlns:rdf="http://www.w3.org/1999/02/22-rdf-syntax-ns#"
   xmlns:svg="http://www.w3.org/2000/svg"
   xmlns="http://www.w3.org/2000/svg"
   xmlns:sodipodi="http://sodipodi.sourceforge.net/DTD/sodipodi-0.dtd"
   xmlns:inkscape="http://www.inkscape.org/namespaces/inkscape"
   width="506.76807"
   height="475.32501"
   viewBox="0 0 5.6307561 5.2813889"
   version="1.1"
   id="svg3037"
   inkscape:version="0.48.2 r9819"
   sodipodi:docname="idlerButress2.svg">
  <metadata
     id="metadata3049">
    <rdf:RDF>
      <cc:Work
         rdf:about="">
        <dc:format>image/svg+xml</dc:format>
        <dc:type
           rdf:resource="http://purl.org/dc/dcmitype/StillImage" />
      </cc:Work>
    </rdf:RDF>
  </metadata>
  <defs
     id="defs3047" />
  <sodipodi:namedview
     pagecolor="#ffffff"
     bordercolor="#666666"
     borderopacity="1"
     objecttolerance="10"
     gridtolerance="10"
     guidetolerance="10"
     inkscape:pageopacity="0"
     inkscape:pageshadow="2"
     inkscape:window-width="1508"
     inkscape:window-height="1038"
     id="namedview3045"
     showgrid="false"
     inkscape:document-units="in"
     units="in"
     fit-margin-top="0.5"
     fit-margin-right="0.5"
     fit-margin-bottom="0.5"
     fit-margin-left="0.5"
     inkscape:zoom="1.1234546"
     inkscape:cx="133.151"
     inkscape:cy="380.28451"
     inkscape:window-x="690"
     inkscape:window-y="210"
     inkscape:window-maximized="0"
     inkscape:current-layer="svg3037" />
  <desc
     id="desc3039">Output from Flights of Ideas SVG Sketchup Plugin</desc>
  <path
     style="fill:none;stroke:#0000ff;stroke-width:0.001;stroke-linecap:round;stroke-linejoin:round;stroke-miterlimit:4;stroke-dasharray:none"
     d="m 0.50069441,0.50069443 0,4.27999997 4.62936719,0 0,-4.27999997 -2.3543672,0 0,1.64154997 -0.8,0 0,-1.64154997 -1.47499999,0"
     id="path3055"
     inkscape:connector-curvature="0" />
  <path
     style="fill:none;stroke:#0000ff;stroke-width:0.001;stroke-linecap:round;stroke-linejoin:round;stroke-miterlimit:4;stroke-dasharray:none"
     d="m 2.3060973,2.3710644 c 0.049004,-0.0532 0.1530318,-0.026 0.1641864,0.0475 0.00934,0.056 7.634e-4,0.1131 0.00374,0.1696 -7.337e-4,0.29004 0.00209,0.58021 -0.00158,0.87017 -0.010056,0.0695 -0.1045456,0.10623 -0.1579123,0.0592 -0.050696,-0.0404 -0.034895,-0.11171 -0.037289,-0.16835 8.331e-4,-0.30678 -0.00149,-0.61356 0.00115,-0.92034 0.00278,-0.0216 0.013076,-0.0418 0.027697,-0.0578 z"
     id="path3053"
     inkscape:connector-curvature="0" />
  <path
     style="fill:none;stroke:#0000ff;stroke-width:0.001;stroke-linecap:round;stroke-linejoin:round;stroke-miterlimit:4;stroke-dasharray:none"
     d="m 3.9251807,3.5390944 c -0.041517,-6.7e-4 -0.081031,-0.0285 -0.09327,-0.0686 -0.012764,-0.0387 0.00156,-0.0849 0.035165,-0.10834 0.032099,-0.0251 0.080857,-0.0258 0.1137106,-0.002 0.03453,0.0225 0.049713,0.068 0.038821,0.1073 -0.010072,0.0335 -0.038098,0.0606 -0.072284,0.0685 -0.00738,9.8e-4 -0.014769,0.002 -0.022143,0.003 z"
     id="face0-cut"
     inkscape:connector-curvature="0" />
  <path
     id="face0-interior"
     style="fill:none;stroke:#ff0000;stroke-width:0.001;stroke-linecap:round;stroke-linejoin:round;stroke-miterlimit:4;stroke-dasharray:none"
     d="m 0.50069441,0.50069443 m 0,4.27999997 m 4.62936719,0 m 0,-4.27999997 m -2.3543672,0 m 0,1.64154997 m -0.8,0 m 0,-1.64154997 M 2.3060973,2.3710644 m 0.020385,-0.0156 m 0.023738,-0.01 m 0.025474,-0.003 m 0.025474,0.003 m 0.023738,0.01 m 0.020385,0.0156 m 0.015642,0.0204 m 0.00983,0.0237 m 0.00335,0.0255 m 0,1 m -0.00335,0.0255 m -0.00983,0.0237 m -0.015642,0.0204 m -0.020385,0.0156 m -0.023738,0.01 m -0.025474,0.00323 m -0.025474,-0.003 m -0.023738,-0.01 m -0.020385,-0.0156 m -0.015642,-0.0204 m -0.00983,-0.0237 m -0.00335,-0.0255 m 0,-1 m 0.00335,-0.0255 m 0.00983,-0.0237 m 1.634725,1.14764 m -0.025474,-0.003 m -0.023738,-0.01 m -0.020385,-0.0156 m -0.015642,-0.0204 m -0.00983,-0.0237 m -0.00335,-0.0255 m 0.00335,-0.0255 m 0.00983,-0.0237 m 0.015642,-0.0204 m 0.020385,-0.0156 m 0.023738,-0.01 m 0.025474,-0.003 m 0.025474,0.003 m 0.023738,0.01 m 0.020385,0.0156 m 0.015642,0.0204 m 0.00983,0.0237 m 0.00335,0.0255 m -0.00335,0.0255 m -0.00983,0.0237 m -0.015642,0.0204 m -0.020385,0.0156 m -0.023738,0.01"
     inkscape:connector-curvature="0" />
  <path
     id="path3043"
     style="fill:none;stroke:#00ff00;stroke-width:0.001;stroke-linecap:round;stroke-linejoin:round;stroke-miterlimit:4;stroke-dasharray:none"
     d="m 0.50069441,0.50069443 m 0,4.27999997 m 4.62936719,0 m 0,-4.27999997 m -2.3543672,0 m 0,1.64154997 m -0.8,0 m 0,-1.64154997 M 2.3060973,2.3710644 m 0.020385,-0.0156 m 0.023738,-0.01 m 0.025474,-0.003 m 0.025474,0.003 m 0.023738,0.01 m 0.020385,0.0156 m 0.015642,0.0204 m 0.00983,0.0237 m 0.00335,0.0255 m 0,1 m -0.00335,0.0255 m -0.00983,0.0237 m -0.015642,0.0204 m -0.020385,0.0156 m -0.023738,0.01 m -0.025474,0.00323 m -0.025474,-0.003 m -0.023738,-0.01 m -0.020385,-0.0156 m -0.015642,-0.0204 m -0.00983,-0.0237 m -0.00335,-0.0255 m 0,-1 m 0.00335,-0.0255 m 0.00983,-0.0237 m 1.634725,1.14764 m -0.025474,-0.003 m -0.023738,-0.01 m -0.020385,-0.0156 m -0.015642,-0.0204 m -0.00983,-0.0237 m -0.00335,-0.0255 m 0.00335,-0.0255 m 0.00983,-0.0237 m 0.015642,-0.0204 m 0.020385,-0.0156 m 0.023738,-0.01 m 0.025474,-0.003 m 0.025474,0.003 m 0.023738,0.01 m 0.020385,0.0156 m 0.015642,0.0204 m 0.00983,0.0237 m 0.00335,0.0255 m -0.00335,0.0255 m -0.00983,0.0237 m -0.015642,0.0204 m -0.020385,0.0156 m -0.023738,0.01"
     inkscape:connector-curvature="0" />
  <path
     inkscape:connector-curvature="0"
     id="path3833"
     d="m 2.0389136,2.1359644 c 0,0.0341 -0.027669,0.0618 -0.061801,0.0618 -0.034132,0 -0.061801,-0.0277 -0.061801,-0.0618 0,-0.0341 0.027669,-0.0618 0.061801,-0.0618 0.034132,0 0.061801,0.0277 0.061801,0.0618 z"
     style="color:#000000;fill:none;stroke:#0500ff;stroke-width:0.001;stroke-linecap:butt;stroke-linejoin:miter;stroke-miterlimit:4;stroke-opacity:1;stroke-dashoffset:0;marker:none;visibility:visible;display:inline;overflow:visible;enable-background:accumulate" />
  <path
     style="color:#000000;fill:none;stroke:#0500ff;stroke-width:0.001;stroke-linecap:butt;stroke-linejoin:miter;stroke-miterlimit:4;stroke-opacity:1;stroke-dashoffset:0;marker:none;visibility:visible;display:inline;overflow:visible;enable-background:accumulate"
     d="m 2.8326619,2.1394644 c 0,0.0341 -0.027669,0.0618 -0.061801,0.0618 -0.034132,0 -0.061801,-0.0277 -0.061801,-0.0618 0,-0.0341 0.027669,-0.0618 0.061801,-0.0618 0.034132,0 0.061801,0.0277 0.061801,0.0618 z"
     id="path3062"
     inkscape:connector-curvature="0" />
</svg>
