<?xml version="1.0" standalone="no"?>
<!DOCTYPE svg PUBLIC "-//W3C//DTD SVG 1.1//EN" "http://www.w3.org/Graphics/SVG/1.1/DTD/svg11.dtd">
<svg width="5.75436715366728in" height="5.29999999561411in"
 viewBox="0 0 5.75436715366728 5.29999999561411"
 xmlns="http://www.w3.org/2000/svg" version="1.1"
 xmlns:xlink="http://www.w3.org/1999/xlink">
<desc>Output from Flights of Ideas SVG Sketchup Plugin</desc>

  <path id="face0-cut"
 style="fill:none;stroke:rgb(0,0,255);stroke-width:0.001;stroke-miterlimit:4;stroke-dasharray:none;stroke-linejoin:round;stroke-linecap:round"
        d="M 0.500000000000056,0.5 L 0.500000000000047,1.249999999235 L 0.5,4.79999999561396 L 2.09999999836794,4.79999999561411 L 2.09999999836794,3.13845335541739 L 2.89999999755198,3.13845335541739 L 2.89999999755198,4.7999999956141 L 5.25436715366722,4.79999999561402 L 5.25436715366728,0.5 L 0.500000000000056,0.5 M 2.4507873995849,2.92526687962936 L 2.43040287389836,2.90962528293292 L 2.41476127720192,2.88924075724638 L 2.4049285584615,2.86550247430825 L 2.4015748012099,2.84002815887137 L 2.4015748012099,1.84002815989139 L 2.40492855846149,1.81455384445453 L 2.41476127720192,1.79081556151638 L 2.43040287389835,1.77043103582984 L 2.4507873995849,1.75478943913341 L 2.47452568252304,1.74495672039297 L 2.4999999979599,1.74160296314139 L 2.52547431339676,1.74495672039296 L 2.5492125963349,1.75478943913339 L 2.56959712202145,1.77043103582984 L 2.58523871871788,1.79081556151638 L 2.59507143745831,1.81455384445452 L 2.5984251947099,1.84002815989138 L 2.5984251947099,2.84002815887137 L 2.59507143745831,2.86550247430824 L 2.58523871871789,2.88924075724638 L 2.56959712202145,2.90962528293293 L 2.5492125963349,2.92526687962936 L 2.52547431339677,2.93509959836978 L 2.4999999979599,2.93845335562137 L 2.47452568252304,2.93509959836978 L 2.4507873995849,2.92526687962936 M 4.02401194851072,1.74495672039296 L 4.04948626394758,1.74160296314136 L 4.07496057938444,1.74495672039296 L 4.09869886232258,1.75478943913339 L 4.11908338800912,1.77043103582984 L 4.13472498470556,1.79081556151637 L 4.14455770344599,1.81455384445452 L 4.14791146069758,1.84002815989138 L 4.14455770344599,1.86550247532825 L 4.13472498470556,1.88924075826638 L 4.11908338800913,1.90962528395293 L 4.09869886232258,1.92526688064936 L 4.07496057938444,1.93509959938978 L 4.04948626394758,1.93845335664136 L 4.02401194851072,1.93509959938978 L 4.00027366557258,1.92526688064936 L 3.97988913988604,1.90962528395293 L 3.9642475431896,1.88924075826638 L 3.95441482444918,1.86550247532825 L 3.95106106719759,1.84002815989138 L 3.95441482444918,1.81455384445451 L 3.9642475431896,1.79081556151638 L 3.97988913988604,1.77043103582982 L 4.00027366557258,1.75478943913339 L 4.02401194851072,1.74495672039296 "
  />
  <path id="face0-interior"
 style="fill:none;stroke:rgb(255,0,0);stroke-width:0.001;stroke-miterlimit:4;stroke-dasharray:none;stroke-linejoin:round;stroke-linecap:round"
        d="M 0.500000000000056,0.5 M 0.500000000000047,1.249999999235 M 0.5,4.79999999561396 M 2.09999999836794,4.79999999561411 M 2.09999999836794,3.13845335541739 M 2.89999999755198,3.13845335541739 M 2.89999999755198,4.7999999956141 M 5.25436715366722,4.79999999561402 M 5.25436715366728,0.5 M 2.4507873995849,2.92526687962936 M 2.43040287389836,2.90962528293292 M 2.41476127720192,2.88924075724638 M 2.4049285584615,2.86550247430825 M 2.4015748012099,2.84002815887137 M 2.4015748012099,1.84002815989139 M 2.40492855846149,1.81455384445453 M 2.41476127720192,1.79081556151638 M 2.43040287389835,1.77043103582984 M 2.4507873995849,1.75478943913341 M 2.47452568252304,1.74495672039297 M 2.4999999979599,1.74160296314139 M 2.52547431339676,1.74495672039296 M 2.5492125963349,1.75478943913339 M 2.56959712202145,1.77043103582984 M 2.58523871871788,1.79081556151638 M 2.59507143745831,1.81455384445452 M 2.5984251947099,1.84002815989138 M 2.5984251947099,2.84002815887137 M 2.59507143745831,2.86550247430824 M 2.58523871871789,2.88924075724638 M 2.56959712202145,2.90962528293293 M 2.5492125963349,2.92526687962936 M 2.52547431339677,2.93509959836978 M 2.4999999979599,2.93845335562137 M 2.47452568252304,2.93509959836978 M 4.02401194851072,1.74495672039296 M 4.04948626394758,1.74160296314136 M 4.07496057938444,1.74495672039296 M 4.09869886232258,1.75478943913339 M 4.11908338800912,1.77043103582984 M 4.13472498470556,1.79081556151637 M 4.14455770344599,1.81455384445452 M 4.14791146069758,1.84002815989138 M 4.14455770344599,1.86550247532825 M 4.13472498470556,1.88924075826638 M 4.11908338800913,1.90962528395293 M 4.09869886232258,1.92526688064936 M 4.07496057938444,1.93509959938978 M 4.04948626394758,1.93845335664136 M 4.02401194851072,1.93509959938978 M 4.00027366557258,1.92526688064936 M 3.97988913988604,1.90962528395293 M 3.9642475431896,1.88924075826638 M 3.95441482444918,1.86550247532825 M 3.95106106719759,1.84002815989138 M 3.95441482444918,1.81455384445451 M 3.9642475431896,1.79081556151638 M 3.97988913988604,1.77043103582982 M 4.00027366557258,1.75478943913339 "
  />
  <path id="face0-interior"
 style="fill:none;stroke:rgb(0,255,0);stroke-width:0.001;stroke-miterlimit:4;stroke-dasharray:none;stroke-linejoin:round;stroke-linecap:round"
        d="M 0.500000000000056,0.5 M 0.500000000000047,1.249999999235 M 0.5,4.79999999561396 M 2.09999999836794,4.79999999561411 M 2.09999999836794,3.13845335541739 M 2.89999999755198,3.13845335541739 M 2.89999999755198,4.7999999956141 M 5.25436715366722,4.79999999561402 M 5.25436715366728,0.5 M 2.4507873995849,2.92526687962936 M 2.43040287389836,2.90962528293292 M 2.41476127720192,2.88924075724638 M 2.4049285584615,2.86550247430825 M 2.4015748012099,2.84002815887137 M 2.4015748012099,1.84002815989139 M 2.40492855846149,1.81455384445453 M 2.41476127720192,1.79081556151638 M 2.43040287389835,1.77043103582984 M 2.4507873995849,1.75478943913341 M 2.47452568252304,1.74495672039297 M 2.4999999979599,1.74160296314139 M 2.52547431339676,1.74495672039296 M 2.5492125963349,1.75478943913339 M 2.56959712202145,1.77043103582984 M 2.58523871871788,1.79081556151638 M 2.59507143745831,1.81455384445452 M 2.5984251947099,1.84002815989138 M 2.5984251947099,2.84002815887137 M 2.59507143745831,2.86550247430824 M 2.58523871871789,2.88924075724638 M 2.56959712202145,2.90962528293293 M 2.5492125963349,2.92526687962936 M 2.52547431339677,2.93509959836978 M 2.4999999979599,2.93845335562137 M 2.47452568252304,2.93509959836978 M 4.02401194851072,1.74495672039296 M 4.04948626394758,1.74160296314136 M 4.07496057938444,1.74495672039296 M 4.09869886232258,1.75478943913339 M 4.11908338800912,1.77043103582984 M 4.13472498470556,1.79081556151637 M 4.14455770344599,1.81455384445452 M 4.14791146069758,1.84002815989138 M 4.14455770344599,1.86550247532825 M 4.13472498470556,1.88924075826638 M 4.11908338800913,1.90962528395293 M 4.09869886232258,1.92526688064936 M 4.07496057938444,1.93509959938978 M 4.04948626394758,1.93845335664136 M 4.02401194851072,1.93509959938978 M 4.00027366557258,1.92526688064936 M 3.97988913988604,1.90962528395293 M 3.9642475431896,1.88924075826638 M 3.95441482444918,1.86550247532825 M 3.95106106719759,1.84002815989138 M 3.95441482444918,1.81455384445451 M 3.9642475431896,1.79081556151638 M 3.97988913988604,1.77043103582982 M 4.00027366557258,1.75478943913339 "
  />
</svg>
