<?xml version="1.0" encoding="UTF-8" standalone="no"?>
<svg
   xmlns:dc="http://purl.org/dc/elements/1.1/"
   xmlns:cc="http://creativecommons.org/ns#"
   xmlns:rdf="http://www.w3.org/1999/02/22-rdf-syntax-ns#"
   xmlns:svg="http://www.w3.org/2000/svg"
   xmlns="http://www.w3.org/2000/svg"
   xmlns:sodipodi="http://sodipodi.sourceforge.net/DTD/sodipodi-0.dtd"
   xmlns:inkscape="http://www.inkscape.org/namespaces/inkscape"
   width="673.57007"
   height="475.22244"
   viewBox="0 0 7.4841119 5.2802493"
   version="1.1"
   id="svg2"
   inkscape:version="0.48.2 r9819"
   sodipodi:docname="motorBase.svg">
  <metadata
     id="metadata317">
    <rdf:RDF>
      <cc:Work
         rdf:about="">
        <dc:format>image/svg+xml</dc:format>
        <dc:type
           rdf:resource="http://purl.org/dc/dcmitype/StillImage" />
      </cc:Work>
    </rdf:RDF>
  </metadata>
  <defs
     id="defs315" />
  <sodipodi:namedview
     pagecolor="#ffffff"
     bordercolor="#666666"
     borderopacity="1"
     objecttolerance="10"
     gridtolerance="10"
     guidetolerance="10"
     inkscape:pageopacity="0"
     inkscape:pageshadow="2"
     inkscape:window-width="1640"
     inkscape:window-height="1367"
     id="namedview313"
     showgrid="false"
     units="in"
     fit-margin-top="0.5"
     fit-margin-right="0.25"
     fit-margin-bottom="0.5"
     fit-margin-left="0.25"
     inkscape:document-units="in"
     inkscape:zoom="1.8231214"
     inkscape:cx="336.78503"
     inkscape:cy="237.61122"
     inkscape:window-x="852"
     inkscape:window-y="0"
     inkscape:window-maximized="0"
     inkscape:current-layer="svg2" />
  <desc
     id="desc4">Output from Flights of Ideas SVG Sketchup Plugin</desc>
  <g
     id="text_annotations"
     font-size=".1"
     style="font-size:0.1px;stroke:#ff0000;stroke-width:0.01"
     transform="translate(-0.09306454,6.9441989e-4)" />
  <g
     id="g4385"
     transform="translate(-0.09806454,-0.00430547)">
    <path
       style="color:#000000;fill:none;stroke:#0500ff;stroke-width:0.001;stroke-linecap:butt;stroke-linejoin:miter;stroke-miterlimit:4;stroke-opacity:1;stroke-dasharray:none;stroke-dashoffset:0;marker:none;visibility:visible;display:inline;overflow:visible;enable-background:accumulate"
       d="m 2.9678096,3.1661943 c 0,0.034132 -0.027669,0.061801 -0.061801,0.061801 -0.034132,0 -0.061801,-0.027669 -0.061801,-0.061801 0,-0.034132 0.027669,-0.061801 0.061801,-0.061801 0.034132,0 0.061801,0.027669 0.061801,0.061801 z"
       id="path4387"
       inkscape:connector-curvature="0" />
    <path
       style="fill:none;stroke:#0000ff;stroke-width:0.001;stroke-linecap:round;stroke-linejoin:round;stroke-miterlimit:4"
       d="m 0.50500001,0.50499988 6.9575e-4,3.54641592 0,0.7324445 3.22704294,0 0,-0.7293755 7.867e-4,-3.54948492"
       id="path4389"
       inkscape:connector-curvature="0"
       sodipodi:nodetypes="cccccc" />
    <path
       style="fill:none;stroke:#0000ff;stroke-width:0.001;stroke-linecap:round;stroke-linejoin:round;stroke-miterlimit:4"
       d="m 3.7335253,0.50499988 -3.2285253,0"
       id="path4391"
       inkscape:connector-curvature="0"
       sodipodi:nodetypes="cc" />
    <path
       style="fill:none;stroke:#0000ff;stroke-width:0.001;stroke-linecap:round;stroke-linejoin:round;stroke-miterlimit:4"
       d="m 0.34875899,4.0556946 0,0.7274132 3.54100701,0 0,-0.7274132 z"
       id="path4393"
       inkscape:connector-curvature="0"
       sodipodi:nodetypes="ccccc" />
    <path
       id="path4395"
       style="fill:none;stroke:#0000ff;stroke-width:0.001;stroke-linecap:round;stroke-linejoin:round;stroke-miterlimit:4"
       d="m 0.85912657,4.3901386 0.006244,0.015074 m -0.0161764,-0.028018 0.009932,0.012944 m -0.0228762,-0.022876 0.0129442,0.00993 m -0.028018,-0.016174 0.0150738,0.00624 m -0.03125,-0.00837 0.0161762,0.00213 m -0.0323524,-4e-7 0.0161762,-0.00213 m -0.03125,0.00837 0.0150738,-0.00624 m -0.028018,0.016172 0.0129442,-0.00993 m -0.0228767,0.022874 0.009932,-0.012944 m -0.0161758,0.028018 0.006244,-0.015074 m -0.008374,0.03125 0.00213,-0.016176 m -3.9e-7,0.032352 -0.00213,-0.016176 m 0.008374,0.03125 -0.006244,-0.015074 m 0.0161765,0.028018 -0.009932,-0.012944 m 0.0228762,0.022877 -0.0129442,-0.00993 m 0.028018,0.016174 -0.0150738,-0.00624 m 0.03125,0.00837 -0.0161762,-0.00213 m 0.0323524,5e-7 -0.0161762,0.00213 m 0.03125,-0.00837 -0.0150738,0.00624 m 0.028018,-0.016173 -0.0129442,0.00993 m 0.0228766,-0.022874 -0.009932,0.012944 m 0.0161758,-0.028018 -0.006244,0.015074 m 0.008374,-0.03125 -0.00213,0.016176 m 3.2e-7,-0.032352 0.00213,0.016176"
       inkscape:connector-curvature="0" />
    <path
       id="path4397"
       style="fill:none;stroke:#0000ff;stroke-width:0.001;stroke-linecap:round;stroke-linejoin:round;stroke-miterlimit:4"
       d="m 1.7384653,4.4213886 -0.00213,0.016176 m 3e-7,-0.032352 0.00213,0.016176 m -0.00837,-0.03125 0.00624,0.015074 m -0.016172,-0.028018 0.00993,0.012944 m -0.022874,-0.022876 0.012944,0.00993 m -0.028018,-0.016174 0.015074,0.00624 m -0.03125,-0.00837 0.016176,0.00213 m -0.032352,-4e-7 0.016176,-0.00213 m -0.03125,0.00837 0.015074,-0.00624 m -0.028018,0.016172 0.012944,-0.00993 m -0.022876,0.022874 0.00993,-0.012944 m -0.016174,0.028018 0.00624,-0.015074 m -0.00837,0.03125 0.00213,-0.016176 m -4e-7,0.032352 -0.00213,-0.016176 m 0.00837,0.03125 -0.00624,-0.015074 m 0.016172,0.028018 -0.00993,-0.012944 m 0.022874,0.022877 -0.012944,-0.00993 m 0.028018,0.016174 -0.015074,-0.00624 m 0.03125,0.00837 -0.016176,-0.00213 m 0.032352,5e-7 -0.016176,0.00213 m 0.03125,-0.00837 -0.015074,0.00624 m 0.028018,-0.016173 -0.012944,0.00993 m 0.022876,-0.022874 -0.00993,0.012944 m 0.016174,-0.028018 -0.00624,0.015074"
       inkscape:connector-curvature="0" />
    <path
       id="path4399"
       style="fill:none;stroke:#0000ff;stroke-width:0.001;stroke-linecap:round;stroke-linejoin:round;stroke-miterlimit:4"
       d="m 2.5631068,4.4817591 -0.016176,0.00213 m 0.03125,-0.00837 -0.015074,0.00624 m 0.028018,-0.016173 -0.012944,0.00993 m 0.022876,-0.022874 -0.00993,0.012944 m 0.016174,-0.028018 -0.00624,0.015074 m 0.00837,-0.03125 -0.00213,0.016176 m 4e-7,-0.032352 0.00213,0.016176 m -0.00837,-0.03125 0.00624,0.015074 m -0.016173,-0.028018 0.00993,0.012944 m -0.022874,-0.022876 0.012944,0.00993 m -0.028018,-0.016174 0.015074,0.00624 m -0.03125,-0.00837 0.016176,0.00213 m -0.032352,-4e-7 0.016176,-0.00213 m -0.03125,0.00837 0.015074,-0.00624 m -0.028018,0.016172 0.012944,-0.00993 m -0.022877,0.022874 0.00993,-0.012944 m -0.016174,0.028018 0.00624,-0.015074 m -0.00837,0.03125 0.00213,-0.016176 m -3e-7,0.032352 -0.00213,-0.016176 m 0.00837,0.03125 -0.00624,-0.015074 m 0.016173,0.028018 -0.00993,-0.012944 m 0.022874,0.022877 -0.012944,-0.00993 m 0.028018,0.016174 -0.015074,-0.00624 m 0.03125,0.00837 -0.016176,-0.00213"
       inkscape:connector-curvature="0" />
    <path
       id="path4401"
       style="fill:none;stroke:#0000ff;stroke-width:0.001;stroke-linecap:round;stroke-linejoin:round;stroke-miterlimit:4"
       d="m 3.4803958,4.4213886 -0.00213,0.016176 m 4e-7,-0.032352 0.00213,0.016176 m -0.00837,-0.03125 0.00624,0.015074 M 3.46209,4.3771944 3.47202,4.3901384 m -0.022874,-0.022876 0.012944,0.00993 m -0.028018,-0.016174 0.015074,0.00624 m -0.03125,-0.00837 0.016176,0.00213 m -0.032352,-4e-7 0.016176,-0.00213 M 3.386646,4.367258 3.40172,4.361018 M 3.373702,4.37719 3.386646,4.36726 M 3.363769,4.390134 3.373699,4.37719 M 3.357525,4.405208 3.363765,4.390134 m -0.00837,0.03125 0.00213,-0.016176 m -2e-7,0.032352 -0.00213,-0.016176 m 0.00837,0.03125 -0.00624,-0.015074 m 0.016173,0.028018 -0.00993,-0.012944 m 0.022874,0.022877 -0.012944,-0.00993 m 0.028018,0.016174 -0.015074,-0.00624 m 0.03125,0.00837 -0.016176,-0.00213 m 0.032352,5e-7 -0.016176,0.00213 m 0.03125,-0.00837 -0.015074,0.00624 m 0.028018,-0.016173 -0.012944,0.00993 m 0.022877,-0.022874 -0.00993,0.012944 m 0.016176,-0.028018 -0.00624,0.015074"
       inkscape:connector-curvature="0" />
    <path
       style="color:#000000;fill:none;stroke:#0500ff;stroke-width:0.001;stroke-linecap:butt;stroke-linejoin:miter;stroke-miterlimit:4;stroke-opacity:1;stroke-dasharray:none;stroke-dashoffset:0;marker:none;visibility:visible;display:inline;overflow:visible;enable-background:accumulate"
       d="m 1.3414999,1.3911242 c 0,0.034132 -0.027669,0.061801 -0.061801,0.061801 -0.034132,0 -0.061801,-0.027669 -0.061801,-0.061801 0,-0.034132 0.027669,-0.061801 0.061801,-0.061801 0.034132,0 0.061801,0.027669 0.061801,0.061801 z"
       id="path4403"
       inkscape:connector-curvature="0" />
  </g>
  <g
     id="g4374"
     transform="matrix(1,0,0,-1,3.3436513,5.2845547)">
    <path
       inkscape:connector-curvature="0"
       id="path3002"
       d="m 2.9678096,3.1661943 c 0,0.034132 -0.027669,0.061801 -0.061801,0.061801 -0.034132,0 -0.061801,-0.027669 -0.061801,-0.061801 0,-0.034132 0.027669,-0.061801 0.061801,-0.061801 0.034132,0 0.061801,0.027669 0.061801,0.061801 z"
       style="color:#000000;fill:none;stroke:#0500ff;stroke-width:0.001;stroke-linecap:butt;stroke-linejoin:miter;stroke-miterlimit:4;stroke-opacity:1;stroke-dasharray:none;stroke-dashoffset:0;marker:none;visibility:visible;display:inline;overflow:visible;enable-background:accumulate" />
    <path
       sodipodi:nodetypes="cccccc"
       inkscape:connector-curvature="0"
       id="path5054"
       d="m 0.50500001,0.50499988 6.9575e-4,3.54641592 0,0.7324445 3.22704294,0 0,-0.7293755 7.867e-4,-3.54948492"
       style="fill:none;stroke:#0000ff;stroke-width:0.001;stroke-linecap:round;stroke-linejoin:round;stroke-miterlimit:4" />
    <path
       sodipodi:nodetypes="cc"
       inkscape:connector-curvature="0"
       id="line10"
       d="m 3.7335253,0.50499988 -3.2285253,0"
       style="fill:none;stroke:#0000ff;stroke-width:0.001;stroke-linecap:round;stroke-linejoin:round;stroke-miterlimit:4" />
    <path
       sodipodi:nodetypes="ccccc"
       inkscape:connector-curvature="0"
       id="path5058"
       d="m 0.34875899,4.0556946 0,0.7274132 3.54100701,0 0,-0.7274132 z"
       style="fill:none;stroke:#0000ff;stroke-width:0.001;stroke-linecap:round;stroke-linejoin:round;stroke-miterlimit:4" />
    <path
       d="m 0.85912657,4.3901386 0.006244,0.015074 m -0.0161764,-0.028018 0.009932,0.012944 m -0.0228762,-0.022876 0.0129442,0.00993 m -0.028018,-0.016174 0.0150738,0.00624 m -0.03125,-0.00837 0.0161762,0.00213 m -0.0323524,-4e-7 0.0161762,-0.00213 m -0.03125,0.00837 0.0150738,-0.00624 m -0.028018,0.016172 0.0129442,-0.00993 m -0.0228767,0.022874 0.009932,-0.012944 m -0.0161758,0.028018 0.006244,-0.015074 m -0.008374,0.03125 0.00213,-0.016176 m -3.9e-7,0.032352 -0.00213,-0.016176 m 0.008374,0.03125 -0.006244,-0.015074 m 0.0161765,0.028018 -0.009932,-0.012944 m 0.0228762,0.022877 -0.0129442,-0.00993 m 0.028018,0.016174 -0.0150738,-0.00624 m 0.03125,0.00837 -0.0161762,-0.00213 m 0.0323524,5e-7 -0.0161762,0.00213 m 0.03125,-0.00837 -0.0150738,0.00624 m 0.028018,-0.016173 -0.0129442,0.00993 m 0.0228766,-0.022874 -0.009932,0.012944 m 0.0161758,-0.028018 -0.006244,0.015074 m 0.008374,-0.03125 -0.00213,0.016176 m 3.2e-7,-0.032352 0.00213,0.016176"
       style="fill:none;stroke:#0000ff;stroke-width:0.001;stroke-linecap:round;stroke-linejoin:round;stroke-miterlimit:4"
       id="line167"
       inkscape:connector-curvature="0" />
    <path
       d="m 1.7384653,4.4213886 -0.00213,0.016176 m 3e-7,-0.032352 0.00213,0.016176 m -0.00837,-0.03125 0.00624,0.015074 m -0.016172,-0.028018 0.00993,0.012944 m -0.022874,-0.022876 0.012944,0.00993 m -0.028018,-0.016174 0.015074,0.00624 m -0.03125,-0.00837 0.016176,0.00213 m -0.032352,-4e-7 0.016176,-0.00213 m -0.03125,0.00837 0.015074,-0.00624 m -0.028018,0.016172 0.012944,-0.00993 m -0.022876,0.022874 0.00993,-0.012944 m -0.016174,0.028018 0.00624,-0.015074 m -0.00837,0.03125 0.00213,-0.016176 m -4e-7,0.032352 -0.00213,-0.016176 m 0.00837,0.03125 -0.00624,-0.015074 m 0.016172,0.028018 -0.00993,-0.012944 m 0.022874,0.022877 -0.012944,-0.00993 m 0.028018,0.016174 -0.015074,-0.00624 m 0.03125,0.00837 -0.016176,-0.00213 m 0.032352,5e-7 -0.016176,0.00213 m 0.03125,-0.00837 -0.015074,0.00624 m 0.028018,-0.016173 -0.012944,0.00993 m 0.022876,-0.022874 -0.00993,0.012944 m 0.016174,-0.028018 -0.00624,0.015074"
       style="fill:none;stroke:#0000ff;stroke-width:0.001;stroke-linecap:round;stroke-linejoin:round;stroke-miterlimit:4"
       id="line215"
       inkscape:connector-curvature="0" />
    <path
       d="m 2.5631068,4.4817591 -0.016176,0.00213 m 0.03125,-0.00837 -0.015074,0.00624 m 0.028018,-0.016173 -0.012944,0.00993 m 0.022876,-0.022874 -0.00993,0.012944 m 0.016174,-0.028018 -0.00624,0.015074 m 0.00837,-0.03125 -0.00213,0.016176 m 4e-7,-0.032352 0.00213,0.016176 m -0.00837,-0.03125 0.00624,0.015074 m -0.016173,-0.028018 0.00993,0.012944 m -0.022874,-0.022876 0.012944,0.00993 m -0.028018,-0.016174 0.015074,0.00624 m -0.03125,-0.00837 0.016176,0.00213 m -0.032352,-4e-7 0.016176,-0.00213 m -0.03125,0.00837 0.015074,-0.00624 m -0.028018,0.016172 0.012944,-0.00993 m -0.022877,0.022874 0.00993,-0.012944 m -0.016174,0.028018 0.00624,-0.015074 m -0.00837,0.03125 0.00213,-0.016176 m -3e-7,0.032352 -0.00213,-0.016176 m 0.00837,0.03125 -0.00624,-0.015074 m 0.016173,0.028018 -0.00993,-0.012944 m 0.022874,0.022877 -0.012944,-0.00993 m 0.028018,0.016174 -0.015074,-0.00624 m 0.03125,0.00837 -0.016176,-0.00213"
       style="fill:none;stroke:#0000ff;stroke-width:0.001;stroke-linecap:round;stroke-linejoin:round;stroke-miterlimit:4"
       id="line263"
       inkscape:connector-curvature="0" />
    <path
       d="m 3.4803958,4.4213886 -0.00213,0.016176 m 4e-7,-0.032352 0.00213,0.016176 m -0.00837,-0.03125 0.00624,0.015074 M 3.46209,4.3771944 3.47202,4.3901384 m -0.022874,-0.022876 0.012944,0.00993 m -0.028018,-0.016174 0.015074,0.00624 m -0.03125,-0.00837 0.016176,0.00213 m -0.032352,-4e-7 0.016176,-0.00213 M 3.386646,4.367258 3.40172,4.361018 M 3.373702,4.37719 3.386646,4.36726 M 3.363769,4.390134 3.373699,4.37719 M 3.357525,4.405208 3.363765,4.390134 m -0.00837,0.03125 0.00213,-0.016176 m -2e-7,0.032352 -0.00213,-0.016176 m 0.00837,0.03125 -0.00624,-0.015074 m 0.016173,0.028018 -0.00993,-0.012944 m 0.022874,0.022877 -0.012944,-0.00993 m 0.028018,0.016174 -0.015074,-0.00624 m 0.03125,0.00837 -0.016176,-0.00213 m 0.032352,5e-7 -0.016176,0.00213 m 0.03125,-0.00837 -0.015074,0.00624 m 0.028018,-0.016173 -0.012944,0.00993 m 0.022877,-0.022874 -0.00993,0.012944 m 0.016176,-0.028018 -0.00624,0.015074"
       style="fill:none;stroke:#0000ff;stroke-width:0.001;stroke-linecap:round;stroke-linejoin:round;stroke-miterlimit:4"
       id="line311"
       inkscape:connector-curvature="0" />
    <path
       inkscape:connector-curvature="0"
       id="path3000"
       d="m 1.3414999,1.3911242 c 0,0.034132 -0.027669,0.061801 -0.061801,0.061801 -0.034132,0 -0.061801,-0.027669 -0.061801,-0.061801 0,-0.034132 0.027669,-0.061801 0.061801,-0.061801 0.034132,0 0.061801,0.027669 0.061801,0.061801 z"
       style="color:#000000;fill:none;stroke:#0500ff;stroke-width:0.001;stroke-linecap:butt;stroke-linejoin:miter;stroke-miterlimit:4;stroke-opacity:1;stroke-dasharray:none;stroke-dashoffset:0;marker:none;visibility:visible;display:inline;overflow:visible;enable-background:accumulate" />
  </g>
</svg>
