<?xml version="1.0" encoding="UTF-8" standalone="no"?>
<svg
   xmlns:dc="http://purl.org/dc/elements/1.1/"
   xmlns:cc="http://creativecommons.org/ns#"
   xmlns:rdf="http://www.w3.org/1999/02/22-rdf-syntax-ns#"
   xmlns:svg="http://www.w3.org/2000/svg"
   xmlns="http://www.w3.org/2000/svg"
   xmlns:sodipodi="http://sodipodi.sourceforge.net/DTD/sodipodi-0.dtd"
   xmlns:inkscape="http://www.inkscape.org/namespaces/inkscape"
   width="516.09308"
   height="475.20001"
   viewBox="0 0 5.7343672 5.28"
   version="1.1"
   id="svg2"
   inkscape:version="0.48.2 r9819"
   sodipodi:docname="motorPlate.svg">
  <metadata
     id="metadata644">
    <rdf:RDF>
      <cc:Work
         rdf:about="">
        <dc:format>image/svg+xml</dc:format>
        <dc:type
           rdf:resource="http://purl.org/dc/dcmitype/StillImage" />
      </cc:Work>
    </rdf:RDF>
  </metadata>
  <defs
     id="defs642" />
  <sodipodi:namedview
     pagecolor="#ffffff"
     bordercolor="#666666"
     borderopacity="1"
     objecttolerance="10"
     gridtolerance="10"
     guidetolerance="10"
     inkscape:pageopacity="0"
     inkscape:pageshadow="2"
     inkscape:window-width="1665"
     inkscape:window-height="1386"
     id="namedview640"
     showgrid="false"
     inkscape:document-units="in"
     units="in"
     inkscape:zoom="2.4579124"
     inkscape:cx="258.04654"
     inkscape:cy="237.60001"
     inkscape:window-x="847"
     inkscape:window-y="0"
     inkscape:window-maximized="0"
     inkscape:current-layer="svg2" />
  <desc
     id="desc4">Output from Flights of Ideas SVG Sketchup Plugin</desc>
  <g
     id="text_annotations"
     font-size=".1"
     style="font-size:0.10000000000000001px;stroke:#ff0000;stroke-width:0.001;stroke-miterlimit:4;stroke-dasharray:none"
     transform="translate(0,1.0024523e-5)" />
  <path
     id="line14"
     style="fill:none;stroke:#0000ff;stroke-width:0.001;stroke-linecap:round;stroke-linejoin:round;stroke-miterlimit:4"
     d="m 0.5,0.50001001 0,4.28000019 m 4.7343674,-4.28000019 -4.7343674,0 m 4.7343674,4.28000019 0,-4.28000019 M 0.5,4.7800102 l 4.7343674,0" />
  <path
     id="line62"
     style="fill:none;stroke:#0000ff;stroke-width:0.001;stroke-linecap:round;stroke-linejoin:round;stroke-miterlimit:4;stroke-dasharray:none"
     d="m 0.83375001,4.4258833 c 0.005025,-0.00208 0.0100492,-0.00416 0.0150738,-0.00624 m -0.028018,0.016173 c 0.004315,-0.00331 0.008629,-0.00662 0.0129442,-0.00993 M 0.81087339,4.44876 c 0.003311,-0.00431 0.006622,-0.00863 0.009932,-0.012944 m -0.0161758,0.028018 c 0.002081,-0.00502 0.004163,-0.010049 0.006244,-0.015074 m -0.008374,0.03125 c 7.0987e-4,-0.00539 0.00142,-0.010784 0.00213,-0.016176 m -3.9e-7,0.032352 c -7.0987e-4,-0.00539 -0.00142,-0.010784 -0.00213,-0.016176 m 0.008374,0.03125 c -0.002081,-0.00502 -0.004163,-0.010049 -0.006244,-0.015074 m 0.0161765,0.028018 c -0.003311,-0.00431 -0.006622,-0.00863 -0.009932,-0.012944 m 0.0228762,0.022876 c -0.004315,-0.00331 -0.008629,-0.00662 -0.0129442,-0.00993 m 0.028018,0.016174 c -0.005025,-0.00208 -0.0100492,-0.00416 -0.0150738,-0.00624 m 0.03125,0.00837 C 0.85960801,4.5418002 0.85421591,4.54109 0.84882381,4.54038 m 0.0323524,5e-7 c -0.005392,7.098e-4 -0.0107841,0.00142 -0.0161762,0.00213 m 0.03125,-0.00837 c -0.005025,0.00208 -0.0100492,0.00416 -0.0150738,0.00624 m 0.028018,-0.016172 c -0.004315,0.00331 -0.008629,0.00662 -0.0129442,0.00993 M 0.91912657,4.51126 c -0.003311,0.00431 -0.006622,0.00863 -0.009932,0.012944 m 0.0161758,-0.028018 c -0.002081,0.00502 -0.004163,0.010049 -0.006244,0.015074 m 0.008374,-0.03125 c -7.0989e-4,0.00539 -0.00142,0.010784 -0.00213,0.016176 m 3.3e-7,-0.032352 c 7.0989e-4,0.00539 0.00142,0.010784 0.00213,0.016176 m -0.008374,-0.03125 c 0.002081,0.00502 0.004163,0.010049 0.006244,0.015074 m -0.0161764,-0.028018 c 0.003311,0.00431 0.006622,0.00863 0.009932,0.012944 m -0.0228762,-0.022877 c 0.004315,0.00331 0.008629,0.00662 0.0129442,0.00993 m -0.028018,-0.016174 c 0.005025,0.00208 0.0100492,0.00416 0.0150738,0.00624 m -0.03125,-0.00837 c 0.005392,7.099e-4 0.0107841,0.00142 0.0161762,0.00213 m -0.0323524,-4e-7 c 0.005392,-7.099e-4 0.0107841,-0.00142 0.0161762,-0.00213" />
  <path
     id="line110"
     style="fill:none;stroke:#0000ff;stroke-width:0.001;stroke-linecap:round;stroke-linejoin:round;stroke-miterlimit:4"
     d="m 0.88117617,3.5570471 -0.0161762,0.00213 m 0.03125,-0.00837 -0.0150738,0.00624 m 0.028018,-0.016172 -0.0129442,0.00993 m 0.0228766,-0.022874 -0.009932,0.012944 m 0.0161758,-0.028018 -0.006244,0.015074 m 0.008374,-0.03125 -0.00213,0.016176 m 3.3e-7,-0.032352 0.00213,0.016176 m -0.008374,-0.03125 0.006244,0.015074 m -0.0161764,-0.028018 0.009932,0.012944 m -0.0228762,-0.022876 0.0129442,0.00993 m -0.028018,-0.016174 0.0150738,0.00624 m -0.03125,-0.00837 0.0161762,0.00213 m -0.0323524,-5e-7 0.0161762,-0.00213 m -0.03125,0.00837 0.0150738,-0.00624 m -0.028018,0.016172 0.0129442,-0.00993 m -0.0228767,0.022874 0.009932,-0.012944 m -0.0161758,0.028018 0.006244,-0.015074 m -0.008374,0.03125 0.00213,-0.016176 m -3.9e-7,0.032352 -0.00213,-0.016176 m 0.008374,0.03125 -0.006244,-0.015074 m 0.0161765,0.028018 -0.009932,-0.012944 m 0.0228762,0.022876 -0.0129442,-0.00993 m 0.028018,0.016174 -0.0150738,-0.00624 m 0.03125,0.00837 -0.0161762,-0.00213" />
  <path
     id="line158"
     style="fill:none;stroke:#0000ff;stroke-width:0.001;stroke-linecap:round;stroke-linejoin:round;stroke-miterlimit:4"
     d="m 0.81087339,2.4820933 0.009932,-0.012944 m -0.0161758,0.028018 0.006244,-0.015074 m -0.008374,0.03125 0.00213,-0.016176 m -3.9e-7,0.032352 -0.00213,-0.016176 m 0.008374,0.03125 -0.006244,-0.015074 m 0.0161765,0.028018 -0.009932,-0.012944 m 0.0228762,0.022876 -0.0129442,-0.00993 m 0.028018,0.016174 -0.0150738,-0.00624 m 0.03125,0.00837 -0.0161762,-0.00213 m 0.0323524,5e-7 -0.0161762,0.00213 m 0.03125,-0.00837 -0.0150738,0.00624 m 0.028018,-0.016172 -0.0129442,0.00993 m 0.0228766,-0.022874 -0.009932,0.012944 m 0.0161758,-0.028018 -0.006244,0.015074 m 0.008374,-0.03125 -0.00213,0.016176 m 3.3e-7,-0.032352 0.00213,0.016176 m -0.008374,-0.03125 0.006244,0.015074 m -0.0161764,-0.028018 0.009932,0.012944 m -0.0228762,-0.022876 0.0129442,0.00993 m -0.028018,-0.016174 0.0150738,0.00624 m -0.03125,-0.00837 0.0161762,0.00213 m -0.0323524,-4e-7 0.0161762,-0.00213 m -0.03125,0.00837 0.0150738,-0.00624 m -0.028018,0.016172 0.0129442,-0.00993" />
  <path
     id="line206"
     style="fill:none;stroke:#0000ff;stroke-width:0.001;stroke-linecap:round;stroke-linejoin:round;stroke-miterlimit:4"
     d="m 3.1552362,2.3947737 -0.00221,0.016823 m -4.9e-6,-0.033646 0.00221,0.016823 m -0.0087,-0.0325 0.00649,0.015677 m -0.01682,-0.029139 0.01033,0.013462 m -0.023792,-0.023792 0.013462,0.01033 m -0.029139,-0.016824 0.015677,0.00649 m -0.0325,-0.0087 0.016823,0.00221 m -0.033646,4.7e-6 0.016823,-0.00221 m -0.0325,0.0087 0.015677,-0.00649 m -0.029139,0.01682 0.013462,-0.01033 m -0.023792,0.023792 0.01033,-0.013462 m -0.016824,0.029139 0.00649,-0.015677 m -0.0087,0.0325 0.00221,-0.016823 m 4.9e-6,0.033646 -0.00221,-0.016823 m 0.0087,0.0325 -0.00649,-0.015677 m 0.016823,0.029139 -0.01033,-0.013462 m 0.023792,0.023792 -0.013462,-0.01033 m 0.029139,0.016823 -0.015677,-0.00649 m 0.0325,0.0087 -0.016823,-0.00221 m 0.033646,-4.9e-6 -0.016823,0.00221 m 0.0325,-0.0087 -0.015677,0.00649 m 0.029139,-0.01682 -0.013462,0.01033 m 0.023792,-0.023792 -0.01033,0.013462 m 0.016823,-0.029139 -0.00649,0.015677" />
  <path
     id="line254"
     style="fill:none;stroke:#0000ff;stroke-width:0.001;stroke-linecap:round;stroke-linejoin:round;stroke-miterlimit:4"
     d="m 1.9157257,2.4407358 -0.013462,0.01033 m 0.023792,-0.023792 -0.01033,0.013462 M 1.932549,2.411597 1.926059,2.427274 m 0.0087,-0.0325 -0.00221,0.016823 m 0,-0.033646 0.00221,0.016823 m -0.0087,-0.0325 0.00649,0.015677 m -0.01682,-0.029139 0.01033,0.013462 m -0.023792,-0.023792 0.013462,0.01033 m -0.029139,-0.016824 0.015677,0.00649 m -0.0325,-0.0087 0.016823,0.00221 m -0.033646,4.7e-6 0.016823,-0.00221 m -0.0325,0.0087 0.015677,-0.00649 m -0.029139,0.01682 0.013462,-0.01033 m -0.023792,0.023792 0.01033,-0.013462 m -0.016824,0.029139 0.00649,-0.015677 m -0.0087,0.0325 0.00221,-0.016823 m 4.8e-6,0.033646 -0.00221,-0.016823 m 0.0087,0.0325 -0.00649,-0.015677 m 0.016823,0.029139 -0.01033,-0.013462 m 0.023792,0.023792 -0.013462,-0.01033 m 0.029139,0.016823 -0.015677,-0.00649 m 0.0325,0.0087 -0.016823,-0.00221 m 0.033646,-4.9e-6 -0.016823,0.00221 m 0.0325,-0.0087 -0.015677,0.00649" />
  <path
     id="line302"
     style="fill:none;stroke:#0000ff;stroke-width:0.001;stroke-linecap:round;stroke-linejoin:round;stroke-miterlimit:4"
     d="m 1.932549,3.598423 0.00221,0.016823 m -0.0087,-0.0325 0.00649,0.015677 m -0.01682,-0.029139 0.01033,0.013462 m -0.023792,-0.023792 0.013462,0.01033 m -0.029139,-0.016823 0.015677,0.00649 m -0.0325,-0.0087 0.016823,0.00221 m -0.033646,4.9e-6 0.016823,-0.00221 m -0.0325,0.0087 0.015677,-0.00649 m -0.029139,0.01682 0.013462,-0.01033 m -0.023792,0.023792 0.01033,-0.013462 m -0.016824,0.029139 0.00649,-0.015677 m -0.0087,0.0325 0.00221,-0.016823 m 4.8e-6,0.033646 -0.00221,-0.016823 m 0.0087,0.0325 -0.00649,-0.015677 m 0.01682,0.029139 -0.01033,-0.013462 m 0.023792,0.023792 -0.013462,-0.01033 m 0.029139,0.016824 -0.015677,-0.00649 m 0.0325,0.0087 -0.016823,-0.00221 m 0.033646,-4.7e-6 -0.016823,0.00221 m 0.0325,-0.0087 -0.015677,0.00649 m 0.029139,-0.01682 -0.013462,0.01033 m 0.023792,-0.023792 -0.01033,0.013462 m 0.016824,-0.029139 -0.00649,0.015677 m 0.0087,-0.0325 -0.00221,0.016823" />
  <path
     id="line350"
     style="fill:none;stroke:#0000ff;stroke-width:0.001;stroke-linecap:round;stroke-linejoin:round;stroke-miterlimit:4"
     d="m 3.0442743,3.5692842 0.013462,-0.01033 m -0.023792,0.023792 0.01033,-0.013462 M 3.027451,3.598423 3.033941,3.582746 m -0.0087,0.0325 0.00221,-0.016823 m 0,0.033647 -0.00221,-0.016823 m 0.0087,0.0325 -0.00649,-0.015677 m 0.016823,0.029139 -0.01033,-0.013462 m 0.023792,0.023792 -0.013462,-0.01033 m 0.029139,0.016824 -0.015677,-0.00649 m 0.0325,0.0087 -0.016823,-0.00221 m 0.033646,-4.7e-6 -0.016823,0.00221 m 0.0325,-0.0087 -0.015677,0.00649 m 0.029139,-0.01682 -0.013462,0.01033 m 0.023792,-0.023792 -0.01033,0.013462 m 0.016823,-0.029139 -0.00649,0.015677 m 0.0087,-0.0325 -0.00221,0.016823 m -4.9e-6,-0.033646 0.00221,0.016823 m -0.0087,-0.0325 0.00649,0.015677 m -0.01682,-0.029139 0.01033,0.013462 m -0.023792,-0.023792 0.013462,0.01033 m -0.029139,-0.016823 0.015677,0.00649 m -0.0325,-0.0087 0.016823,0.00221 m -0.033646,4.9e-6 0.016823,-0.00221 m -0.0325,0.0087 0.015677,-0.00649" />
  <path
     id="line398"
     style="fill:none;stroke:#0000ff;stroke-width:0.001;stroke-linecap:round;stroke-linejoin:round;stroke-miterlimit:4"
     d="m 4.0521278,1.9151096 -0.025474,0.00335 m 0.049212,-0.013183 -0.023738,0.00983 m 0.044122,-0.025472 -0.020384,0.015642 m 0.036026,-0.036026 -0.015642,0.020384 m 0.025475,-0.044122 -0.00983,0.023738 m 0.013184,-0.049212 -0.00335,0.025474 m -3.6e-6,-0.050948 0.00335,0.025474 m -0.013183,-0.049212 0.00983,0.023738 m -0.025472,-0.044123 0.015642,0.020385 m -0.036026,-0.036027 0.020384,0.015642 m -0.044122,-0.025475 0.023738,0.00983 m -0.049212,-0.013184 0.025474,0.00335 m -0.050949,3.9e-6 0.025475,-0.00335 m -0.049213,0.013183 0.023738,-0.00983 m -0.044122,0.025472 0.020384,-0.015642 m -0.036026,0.036026 0.015642,-0.020385 m -0.025475,0.044123 0.00983,-0.023738 m -0.013184,0.049212 0.00335,-0.025474 m 3.8e-6,0.050948 -0.00335,-0.025474 m 0.013183,0.049212 -0.00983,-0.023738 m 0.025472,0.044122 -0.015642,-0.020384 m 0.036026,0.036026 -0.020384,-0.015642 m 0.044123,0.025474 -0.023738,-0.00983 m 0.049213,0.013184 -0.025475,-0.00335" />
  <path
     id="line446"
     style="fill:none;stroke:#0000ff;stroke-width:0.001;stroke-linecap:round;stroke-linejoin:round;stroke-miterlimit:4"
     d="M 2.9754746,3.3852012 2.8601911,3.5004847 M 3.0569925,3.2440081 2.9754746,3.3852012 M 3.0991893,3.0865278 3.0569925,3.2440081 m 0.042197,-0.3205159 0,0.1630356 M 3.0569925,2.766012 3.0991895,2.9234922 M 2.9754746,2.6248188 3.0569925,2.766012 M 2.8601911,2.5095353 2.9754746,2.6248188 M 2.7189982,2.4280176 2.8601911,2.5095356 M 2.5615177,2.3858209 2.7189982,2.4280179 m -0.3205161,-0.042197 0.1630356,0 M 2.2410018,2.4280176 2.3984821,2.3858209 M 2.0998089,2.5095353 2.2410018,2.4280176 M 1.9845253,2.6248188 2.0998089,2.5095353 M 1.9030075,2.766012 1.9845253,2.6248188 M 1.8608108,2.9234922 1.9030075,2.766012 m -0.042197,0.3205158 0,-0.1630356 M 1.9030075,3.2440081 1.8608108,3.0865278 M 1.9845253,3.3852012 1.9030075,3.2440081 M 2.0998089,3.5004847 1.9845253,3.3852012 M 2.2410018,3.5820026 2.0998089,3.5004847 M 2.3984821,3.6241992 2.2410018,3.5820026 m 0.3205159,0.042197 -0.1630356,0 M 2.7189982,3.5820026 2.5615177,3.6241992 M 2.8601911,3.5004847 2.7189982,3.5820026" />
  <path
     id="line494"
     style="fill:none;stroke:#0000ff;stroke-width:0.001;stroke-linecap:round;stroke-linejoin:round;stroke-miterlimit:4"
     d="m 4.3941803,0.89626002 -0.00624,-0.0150738 m 0.016172,0.028018 -0.00993,-0.0129442 m 0.022874,0.0228766 -0.012944,-0.009932 m 0.028018,0.0161758 -0.015074,-0.006244 m 0.03125,0.008373 -0.016176,-0.00213 m 0.032352,3.3e-7 -0.016176,0.00213 m 0.03125,-0.008374 -0.015074,0.006244 m 0.028018,-0.0161764 -0.012944,0.009932 m 0.022877,-0.0228762 -0.00993,0.0129442 m 0.016174,-0.028018 -0.00624,0.0150738 m 0.00837,-0.03125 -0.00213,0.0161762 m 5e-7,-0.0323524 0.00213,0.0161762 m -0.00837,-0.03125 0.00624,0.0150738 m -0.016173,-0.028018 0.00993,0.0129442 M 4.479557,0.8108834 4.492501,0.8208154 m -0.028018,-0.0161758 0.015074,0.006244 m -0.03125,-0.008374 0.016176,0.00213 m -0.032352,-3.8e-7 0.016176,-0.00213 m -0.03125,0.008374 0.015074,-0.006244 m -0.028018,0.0161765 0.012944,-0.009932 m -0.022877,0.0228766 0.00993,-0.0129442 m -0.016174,0.028018 0.00624,-0.0150738 m -0.00837,0.03125 0.00213,-0.0161762 m -4e-7,0.0323524 -0.00213,-0.0161762" />
  <path
     id="line542"
     style="fill:none;stroke:#0000ff;stroke-width:0.001;stroke-linecap:round;stroke-linejoin:round;stroke-miterlimit:4"
     d="m 3.413038,0.86501002 -0.00213,0.0161762 m 5e-7,-0.0323524 0.00213,0.0161762 m -0.00837,-0.03125 0.00624,0.0150738 m -0.016173,-0.028018 0.00993,0.0129442 M 3.381788,0.8108834 3.394732,0.8208154 m -0.028018,-0.0161758 0.015074,0.006244 m -0.03125,-0.008374 0.016176,0.00213 m -0.032352,-3.8e-7 0.016176,-0.00213 m -0.03125,0.008374 0.015074,-0.006244 m -0.028018,0.0161765 0.012944,-0.009932 m -0.022876,0.0228766 0.00993,-0.0129442 m -0.016174,0.028018 0.00624,-0.0150738 m -0.00837,0.03125 0.00213,-0.0161762 m -2e-7,0.0323524 -0.00213,-0.0161762 m 0.00837,0.03125 -0.00624,-0.0150738 m 0.016172,0.028018 -0.00993,-0.0129442 m 0.022874,0.0228766 -0.012944,-0.009932 m 0.028018,0.0161758 -0.015074,-0.006244 m 0.03125,0.008373 -0.016176,-0.00213 m 0.032352,3.3e-7 -0.016176,0.00213 m 0.03125,-0.008374 -0.015074,0.006244 m 0.028018,-0.0161764 -0.012944,0.009932 m 0.022877,-0.0228762 -0.00993,0.0129442 m 0.016174,-0.028018 -0.00624,0.0150738" />
  <path
     id="line590"
     style="fill:none;stroke:#0000ff;stroke-width:0.001;stroke-linecap:round;stroke-linejoin:round;stroke-miterlimit:4"
     d="m 2.1986425,0.89626002 -0.00624,-0.0150738 m 0.016172,0.028018 -0.00993,-0.0129442 m 0.022874,0.0228766 -0.012944,-0.009932 m 0.028018,0.0161758 -0.015074,-0.006244 m 0.03125,0.008373 -0.016176,-0.00213 m 0.032352,3.3e-7 -0.016176,0.00213 m 0.03125,-0.008374 -0.015074,0.006244 m 0.028018,-0.0161764 -0.012944,0.009932 m 0.022877,-0.0228762 -0.00993,0.0129442 m 0.016174,-0.028018 -0.00624,0.0150738 m 0.00837,-0.03125 -0.00213,0.0161762 m 4e-7,-0.0323524 0.00213,0.0161762 m -0.00837,-0.03125 0.00624,0.0150738 m -0.016173,-0.028018 0.00993,0.0129442 M 2.284019,0.8108834 2.296963,0.8208154 m -0.028018,-0.0161758 0.015074,0.006244 m -0.03125,-0.008374 0.016176,0.00213 m -0.032352,-3.8e-7 0.016176,-0.00213 m -0.03125,0.008374 0.015074,-0.006244 m -0.028018,0.0161765 0.012944,-0.009932 m -0.022876,0.0228766 0.00993,-0.0129442 m -0.016174,0.028018 0.00624,-0.0150738 m -0.00837,0.03125 0.00213,-0.0161762 m -5e-7,0.0323524 -0.00213,-0.0161762" />
  <path
     id="line638"
     style="fill:none;stroke:#0000ff;stroke-width:0.001;stroke-linecap:round;stroke-linejoin:round;stroke-miterlimit:4"
     d="m 1.2153704,0.88118619 -0.00624,0.0150738 m 0.00837,-0.03125 -0.00213,0.0161762 m 4e-7,-0.0323524 0.00213,0.0161762 m -0.00837,-0.03125 0.00624,0.0150738 m -0.016172,-0.028018 0.00993,0.0129442 M 1.18625,0.8108834 1.199194,0.8208154 m -0.028018,-0.0161758 0.015074,0.006244 m -0.03125,-0.008373 0.016176,0.00213 m -0.032352,-3.8e-7 0.016176,-0.00213 m -0.03125,0.008373 0.015074,-0.006244 m -0.028018,0.0161765 0.012944,-0.009932 m -0.022876,0.0228766 0.00993,-0.0129442 m -0.016174,0.028018 0.00624,-0.0150738 m -0.00837,0.03125 0.00213,-0.0161762 m -4e-7,0.0323524 -0.00213,-0.0161762 m 0.00837,0.03125 -0.00624,-0.0150738 m 0.016172,0.028018 -0.00993,-0.0129442 m 0.022874,0.0228766 -0.012944,-0.009932 m 0.028018,0.0161758 -0.015074,-0.006244 m 0.03125,0.008373 -0.016176,-0.00213 m 0.032352,3.3e-7 -0.016176,0.00213 m 0.03125,-0.008373 -0.015074,0.006244 m 0.028018,-0.0161764 -0.012944,0.009932 m 0.022877,-0.0228766 -0.00993,0.0129442" />
</svg>
