<?xml version="1.0" encoding="UTF-8" standalone="no"?>
<svg
   xmlns:dc="http://purl.org/dc/elements/1.1/"
   xmlns:cc="http://creativecommons.org/ns#"
   xmlns:rdf="http://www.w3.org/1999/02/22-rdf-syntax-ns#"
   xmlns:svg="http://www.w3.org/2000/svg"
   xmlns="http://www.w3.org/2000/svg"
   xmlns:sodipodi="http://sodipodi.sourceforge.net/DTD/sodipodi-0.dtd"
   xmlns:inkscape="http://www.inkscape.org/namespaces/inkscape"
   width="506.64307"
   height="475.20001"
   viewBox="0 0 5.6293672 5.28"
   version="1.1"
   id="svg2"
   inkscape:version="0.48.0 r9654"
   sodipodi:docname="motorPlate2.svg">
  <metadata
     id="metadata547">
    <rdf:RDF>
      <cc:Work
         rdf:about="">
        <dc:format>image/svg+xml</dc:format>
        <dc:type
           rdf:resource="http://purl.org/dc/dcmitype/StillImage" />
      </cc:Work>
    </rdf:RDF>
  </metadata>
  <defs
     id="defs545" />
  <sodipodi:namedview
     pagecolor="#ffffff"
     bordercolor="#666666"
     borderopacity="1"
     objecttolerance="10"
     gridtolerance="10"
     guidetolerance="10"
     inkscape:pageopacity="0"
     inkscape:pageshadow="2"
     inkscape:window-width="1537"
     inkscape:window-height="856"
     id="namedview543"
     showgrid="false"
     inkscape:document-units="in"
     units="in"
     inkscape:zoom="1.1174242"
     inkscape:cx="274.11956"
     inkscape:cy="219.7017"
     inkscape:window-x="0"
     inkscape:window-y="0"
     inkscape:window-maximized="0"
     inkscape:current-layer="svg2" />
  <desc
     id="desc4">Output from Flights of Ideas SVG Sketchup Plugin</desc>
  <path
     style="fill:none;stroke:#0a0000;stroke-width:0.001;stroke-linecap:round;stroke-linejoin:round;stroke-miterlimit:4"
     d="m 0.5,4.7800102 4.6293674,0"
     id="line7" />
  <path
     style="fill:none;stroke:#0a0000;stroke-width:0.001;stroke-linecap:round;stroke-linejoin:round;stroke-miterlimit:4"
     d="m 5.1293674,4.7800102 0,-4.28000019"
     id="line9" />
  <path
     style="fill:none;stroke:#0a0000;stroke-width:0.001;stroke-linecap:round;stroke-linejoin:round;stroke-miterlimit:4"
     d="m 5.1293674,0.50001001 -4.6293674,0"
     id="line11" />
  <path
     style="fill:none;stroke:#0a0000;stroke-width:0.001;stroke-linecap:round;stroke-linejoin:round;stroke-miterlimit:4"
     d="m 0.5,0.50001001 0,4.28000019"
     id="line13" />
  <path
     id="line61"
     style="fill:none;stroke:#0a0000;stroke-width:0.001;stroke-linecap:round;stroke-linejoin:round;stroke-miterlimit:4"
     d="m 0.71875,4.4258833 0.0150738,-0.00624 m -0.028018,0.016173 0.0129442,-0.00993 m -0.0228766,0.022877 0.009932,-0.012944 m -0.0161758,0.028018 0.006244,-0.015074 M 0.6875,4.48001 0.68963,4.463834 m -3.9e-7,0.032352 L 0.6875,4.48001 m 0.008373,0.03125 -0.006244,-0.015074 m 0.0161764,0.028018 -0.009932,-0.012944 M 0.71875,4.5341368 0.7058058,4.5242068 m 0.028018,0.016174 L 0.71875,4.5341368 M 0.75,4.54251 0.7338238,4.54038 m 0.0323524,5e-7 L 0.75,4.54251 m 0.03125,-0.00837 -0.0150738,0.00624 m 0.028018,-0.016172 -0.0129442,0.00993 m 0.0228766,-0.022877 -0.009932,0.012944 m 0.0161758,-0.028018 -0.006244,0.015074 M 0.8125,4.48001 0.81037,4.496186 m 3.9e-7,-0.032352 0.00213,0.016176 m -0.008373,-0.03125 0.006244,0.015074 m -0.0161764,-0.028018 0.009932,0.012944 M 0.78125,4.4258833 l 0.0129442,0.00993 m -0.028018,-0.016174 0.0150738,0.00624 M 0.75,4.41751 0.7661762,4.41964 m -0.0323524,-4e-7 L 0.75,4.41751" />
  <path
     id="line109"
     style="fill:none;stroke:#0a0000;stroke-width:0.001;stroke-linecap:round;stroke-linejoin:round;stroke-miterlimit:4"
     d="m 0.69587344,2.4820933 0.009932,-0.012944 m -0.0161758,0.028018 0.006244,-0.015074 M 0.6875,2.5133433 0.68963,2.4971673 m -3.9e-7,0.032352 -0.00213,-0.016176 m 0.008373,0.03125 -0.006244,-0.015074 m 0.0161764,0.028018 -0.009932,-0.012944 M 0.71875,2.5674698 0.7058058,2.5575398 m 0.028018,0.016174 L 0.71875,2.5674698 M 0.75,2.5758433 0.7338238,2.5737133 m 0.0323524,5e-7 L 0.75,2.5758433 m 0.03125,-0.00837 -0.0150738,0.00624 m 0.028018,-0.016172 -0.0129442,0.00993 m 0.0228766,-0.022877 -0.009932,0.012944 m 0.0161758,-0.028018 -0.006244,0.015074 M 0.8125,2.5133433 0.81037,2.5295193 m 3.9e-7,-0.032352 0.00213,0.016176 m -0.008373,-0.03125 0.006244,0.015074 m -0.0161764,-0.028018 0.009932,0.012944 M 0.78125,2.4592168 l 0.0129442,0.00993 m -0.028018,-0.016174 0.0150738,0.00624 M 0.75,2.4508433 l 0.0161762,0.00213 m -0.0323524,-4e-7 L 0.75,2.4508433 m -0.03125,0.00837 0.0150738,-0.00624 m -0.028018,0.016172 0.0129442,-0.00993" />
  <path
     id="line157"
     style="fill:none;stroke:#0a0000;stroke-width:0.001;stroke-linecap:round;stroke-linejoin:round;stroke-miterlimit:4"
     d="m 3.1552362,2.3947737 -0.00221,0.016823 m -4.9e-6,-0.033646 0.00221,0.016823 m -0.0087,-0.0325 0.00649,0.015677 m -0.01682,-0.029139 0.01033,0.013462 m -0.023792,-0.023792 0.013462,0.01033 m -0.029139,-0.016824 0.015677,0.00649 m -0.0325,-0.0087 0.016823,0.00221 m -0.033646,4.7e-6 0.016823,-0.00221 m -0.0325,0.0087 0.015677,-0.00649 m -0.029139,0.01682 0.013462,-0.01033 m -0.023792,0.023792 0.01033,-0.013462 m -0.016824,0.029139 0.00649,-0.015677 m -0.0087,0.0325 0.00221,-0.016823 m 4.9e-6,0.033646 -0.00221,-0.016823 m 0.0087,0.0325 -0.00649,-0.015677 m 0.016823,0.029139 -0.01033,-0.013462 m 0.023792,0.023792 -0.013462,-0.01033 m 0.029139,0.016823 -0.015677,-0.00649 m 0.0325,0.0087 -0.016823,-0.00221 m 0.033646,-4.9e-6 -0.016823,0.00221 m 0.0325,-0.0087 -0.015677,0.00649 m 0.029139,-0.01682 -0.013462,0.01033 m 0.023792,-0.023792 -0.01033,0.013462 m 0.016823,-0.029139 -0.00649,0.015677" />
  <path
     id="line205"
     style="fill:none;stroke:#0a0000;stroke-width:0.001;stroke-linecap:round;stroke-linejoin:round;stroke-miterlimit:4"
     d="m 1.9157257,2.4407358 -0.013462,0.01033 m 0.023792,-0.023792 -0.01033,0.013462 M 1.932549,2.411597 1.926059,2.427274 m 0.0087,-0.0325 -0.00221,0.016823 m 0,-0.033646 0.00221,0.016823 m -0.0087,-0.0325 0.00649,0.015677 m -0.01682,-0.029139 0.01033,0.013462 m -0.023792,-0.023792 0.013462,0.01033 m -0.029139,-0.016824 0.015677,0.00649 m -0.0325,-0.0087 0.016823,0.00221 m -0.033646,4.7e-6 0.016823,-0.00221 m -0.0325,0.0087 0.015677,-0.00649 m -0.029139,0.01682 0.013462,-0.01033 m -0.023792,0.023792 0.01033,-0.013462 m -0.016824,0.029139 0.00649,-0.015677 m -0.0087,0.0325 0.00221,-0.016823 m 4.8e-6,0.033646 -0.00221,-0.016823 m 0.0087,0.0325 -0.00649,-0.015677 m 0.016823,0.029139 -0.01033,-0.013462 m 0.023792,0.023792 -0.013462,-0.01033 m 0.029139,0.016823 -0.015677,-0.00649 m 0.0325,0.0087 -0.016823,-0.00221 m 0.033646,-4.9e-6 -0.016823,0.00221 m 0.0325,-0.0087 -0.015677,0.00649" />
  <path
     id="line253"
     style="fill:none;stroke:#0a0000;stroke-width:0.001;stroke-linecap:round;stroke-linejoin:round;stroke-miterlimit:4"
     d="m 1.932549,3.598423 0.00221,0.016823 m -0.0087,-0.0325 0.00649,0.015677 m -0.01682,-0.029139 0.01033,0.013462 m -0.023792,-0.023792 0.013462,0.01033 m -0.029139,-0.016823 0.015677,0.00649 m -0.0325,-0.0087 0.016823,0.00221 m -0.033646,4.9e-6 0.016823,-0.00221 m -0.0325,0.0087 0.015677,-0.00649 m -0.029139,0.01682 0.013462,-0.01033 m -0.023792,0.023792 0.01033,-0.013462 m -0.016824,0.029139 0.00649,-0.015677 m -0.0087,0.0325 0.00221,-0.016823 m 4.8e-6,0.033646 -0.00221,-0.016823 m 0.0087,0.0325 -0.00649,-0.015677 m 0.01682,0.029139 -0.01033,-0.013462 m 0.023792,0.023792 -0.013462,-0.01033 m 0.029139,0.016824 -0.015677,-0.00649 m 0.0325,0.0087 -0.016823,-0.00221 m 0.033646,-4.7e-6 -0.016823,0.00221 m 0.0325,-0.0087 -0.015677,0.00649 m 0.029139,-0.01682 -0.013462,0.01033 m 0.023792,-0.023792 -0.01033,0.013462 m 0.016824,-0.029139 -0.00649,0.015677 m 0.0087,-0.0325 -0.00221,0.016823" />
  <path
     id="line301"
     style="fill:none;stroke:#0a0000;stroke-width:0.001;stroke-linecap:round;stroke-linejoin:round;stroke-miterlimit:4"
     d="m 3.0442743,3.5692842 0.013462,-0.01033 m -0.023792,0.023792 0.01033,-0.013462 M 3.027451,3.598423 3.033941,3.582746 m -0.0087,0.0325 0.00221,-0.016823 m 0,0.033647 -0.00221,-0.016823 m 0.0087,0.0325 -0.00649,-0.015677 m 0.016823,0.029139 -0.01033,-0.013462 m 0.023792,0.023792 -0.013462,-0.01033 m 0.029139,0.016824 -0.015677,-0.00649 m 0.0325,0.0087 -0.016823,-0.00221 m 0.033646,-4.7e-6 -0.016823,0.00221 m 0.0325,-0.0087 -0.015677,0.00649 m 0.029139,-0.01682 -0.013462,0.01033 m 0.023792,-0.023792 -0.01033,0.013462 m 0.016823,-0.029139 -0.00649,0.015677 m 0.0087,-0.0325 -0.00221,0.016823 m -4.9e-6,-0.033646 0.00221,0.016823 m -0.0087,-0.0325 0.00649,0.015677 m -0.01682,-0.029139 0.01033,0.013462 m -0.023792,-0.023792 0.013462,0.01033 m -0.029139,-0.016823 0.015677,0.00649 m -0.0325,-0.0087 0.016823,0.00221 m -0.033646,4.9e-6 0.016823,-0.00221 m -0.0325,0.0087 0.015677,-0.00649" />
  <path
     id="line349"
     style="fill:none;stroke:#0a0000;stroke-width:0.001;stroke-linecap:round;stroke-linejoin:round;stroke-miterlimit:4"
     d="m 4.0521278,1.9151096 -0.025474,0.00335 m 0.049212,-0.013183 -0.023738,0.00983 m 0.044122,-0.025472 -0.020384,0.015642 m 0.036026,-0.036026 -0.015642,0.020384 m 0.025475,-0.044122 -0.00983,0.023738 m 0.013184,-0.049212 -0.00335,0.025474 m -3.6e-6,-0.050948 0.00335,0.025474 m -0.013183,-0.049212 0.00983,0.023738 m -0.025472,-0.044123 0.015642,0.020385 m -0.036026,-0.036027 0.020384,0.015642 m -0.044122,-0.025475 0.023738,0.00983 m -0.049212,-0.013184 0.025474,0.00335 m -0.050949,3.9e-6 0.025475,-0.00335 m -0.049213,0.013183 0.023738,-0.00983 m -0.044122,0.025472 0.020384,-0.015642 m -0.036026,0.036026 0.015642,-0.020385 m -0.025475,0.044123 0.00983,-0.023738 m -0.013184,0.049212 0.00335,-0.025474 m 3.8e-6,0.050948 -0.00335,-0.025474 m 0.013183,0.049212 -0.00983,-0.023738 m 0.025472,0.044122 -0.015642,-0.020384 m 0.036026,0.036026 -0.020384,-0.015642 m 0.044123,0.025474 -0.023738,-0.00983 m 0.049213,0.013184 -0.025475,-0.00335" />
  <path
     style="fill:none;stroke:#0a0000;stroke-width:0.001;stroke-linecap:round;stroke-linejoin:round;stroke-miterlimit:4"
     d="M 2.8601911,3.5004847 2.7189982,3.5820026"
     id="line351" />
  <path
     style="fill:none;stroke:#0a0000;stroke-width:0.001;stroke-linecap:round;stroke-linejoin:round;stroke-miterlimit:4"
     d="M 2.7189982,3.5820026 2.5615177,3.6241992"
     id="line353" />
  <path
     style="fill:none;stroke:#0a0000;stroke-width:0.001;stroke-linecap:round;stroke-linejoin:round;stroke-miterlimit:4"
     d="m 2.5615177,3.6241992 -0.1630356,0"
     id="line355" />
  <path
     style="fill:none;stroke:#0a0000;stroke-width:0.001;stroke-linecap:round;stroke-linejoin:round;stroke-miterlimit:4"
     d="M 2.3984821,3.6241992 2.2410018,3.5820026"
     id="line357" />
  <path
     style="fill:none;stroke:#0a0000;stroke-width:0.001;stroke-linecap:round;stroke-linejoin:round;stroke-miterlimit:4"
     d="M 2.2410018,3.5820026 2.0998089,3.5004847"
     id="line359" />
  <path
     style="fill:none;stroke:#0a0000;stroke-width:0.001;stroke-linecap:round;stroke-linejoin:round;stroke-miterlimit:4"
     d="M 2.0998089,3.5004847 1.9845253,3.3852012"
     id="line361" />
  <path
     style="fill:none;stroke:#0a0000;stroke-width:0.001;stroke-linecap:round;stroke-linejoin:round;stroke-miterlimit:4"
     d="M 1.9845253,3.3852012 1.9030075,3.2440081"
     id="line363" />
  <path
     style="fill:none;stroke:#0a0000;stroke-width:0.001;stroke-linecap:round;stroke-linejoin:round;stroke-miterlimit:4"
     d="M 1.9030075,3.2440081 1.8608108,3.0865278"
     id="line365" />
  <path
     style="fill:none;stroke:#0a0000;stroke-width:0.001;stroke-linecap:round;stroke-linejoin:round;stroke-miterlimit:4"
     d="m 1.8608108,3.0865278 0,-0.1630356"
     id="line367" />
  <path
     style="fill:none;stroke:#0a0000;stroke-width:0.001;stroke-linecap:round;stroke-linejoin:round;stroke-miterlimit:4"
     d="M 1.8608108,2.9234922 1.9030075,2.766012"
     id="line369" />
  <path
     style="fill:none;stroke:#0a0000;stroke-width:0.001;stroke-linecap:round;stroke-linejoin:round;stroke-miterlimit:4"
     d="M 1.9030075,2.766012 1.9845253,2.6248188"
     id="line371" />
  <path
     style="fill:none;stroke:#0a0000;stroke-width:0.001;stroke-linecap:round;stroke-linejoin:round;stroke-miterlimit:4"
     d="M 1.9845253,2.6248188 2.0998089,2.5095353"
     id="line373" />
  <path
     style="fill:none;stroke:#0a0000;stroke-width:0.001;stroke-linecap:round;stroke-linejoin:round;stroke-miterlimit:4"
     d="M 2.0998089,2.5095353 2.2410018,2.4280176"
     id="line375" />
  <path
     style="fill:none;stroke:#0a0000;stroke-width:0.001;stroke-linecap:round;stroke-linejoin:round;stroke-miterlimit:4"
     d="M 2.2410018,2.4280176 2.3984821,2.3858209"
     id="line377" />
  <path
     style="fill:none;stroke:#0a0000;stroke-width:0.001;stroke-linecap:round;stroke-linejoin:round;stroke-miterlimit:4"
     d="m 2.3984821,2.3858209 0.1630356,0"
     id="line379" />
  <path
     style="fill:none;stroke:#0a0000;stroke-width:0.001;stroke-linecap:round;stroke-linejoin:round;stroke-miterlimit:4"
     d="m 2.5615177,2.3858209 0.1574805,0.042197"
     id="line381" />
  <path
     style="fill:none;stroke:#0a0000;stroke-width:0.001;stroke-linecap:round;stroke-linejoin:round;stroke-miterlimit:4"
     d="m 2.7189982,2.4280176 0.1411929,0.081518"
     id="line383" />
  <path
     style="fill:none;stroke:#0a0000;stroke-width:0.001;stroke-linecap:round;stroke-linejoin:round;stroke-miterlimit:4"
     d="M 2.8601911,2.5095353 2.9754746,2.6248188"
     id="line385" />
  <path
     style="fill:none;stroke:#0a0000;stroke-width:0.001;stroke-linecap:round;stroke-linejoin:round;stroke-miterlimit:4"
     d="M 2.9754746,2.6248188 3.0569925,2.766012"
     id="line387" />
  <path
     style="fill:none;stroke:#0a0000;stroke-width:0.001;stroke-linecap:round;stroke-linejoin:round;stroke-miterlimit:4"
     d="m 3.0569925,2.766012 0.042197,0.1574802"
     id="line389" />
  <path
     style="fill:none;stroke:#0a0000;stroke-width:0.001;stroke-linecap:round;stroke-linejoin:round;stroke-miterlimit:4"
     d="m 3.0991893,2.9234922 0,0.1630356"
     id="line391" />
  <path
     style="fill:none;stroke:#0a0000;stroke-width:0.001;stroke-linecap:round;stroke-linejoin:round;stroke-miterlimit:4"
     d="M 3.0991893,3.0865278 3.0569925,3.2440081"
     id="line393" />
  <path
     style="fill:none;stroke:#0a0000;stroke-width:0.001;stroke-linecap:round;stroke-linejoin:round;stroke-miterlimit:4"
     d="M 3.0569925,3.2440081 2.9754746,3.3852012"
     id="line395" />
  <path
     style="fill:none;stroke:#0a0000;stroke-width:0.001;stroke-linecap:round;stroke-linejoin:round;stroke-miterlimit:4"
     d="M 2.9754746,3.3852012 2.8601911,3.5004847"
     id="line397" />
  <path
     id="line445"
     style="fill:none;stroke:#0a0000;stroke-width:0.001;stroke-linecap:round;stroke-linejoin:round;stroke-miterlimit:4"
     d="m 4.5024338,0.78126001 -0.00993,0.0129442 m 0.016174,-0.028018 -0.00624,0.0150738 m 0.00837,-0.03125 -0.00213,0.0161762 m 5e-7,-0.0323524 0.00213,0.0161762 m -0.00837,-0.03125 0.00624,0.0150738 m -0.016173,-0.028018 0.00993,0.0129442 m -0.022874,-0.0228766 0.012944,0.009932 m -0.028018,-0.0161758 0.015074,0.006244 m -0.03125,-0.008374 0.016176,0.00213 m -0.032352,-3.8e-7 0.016176,-0.00213 m -0.03125,0.008374 0.015074,-0.006244 m -0.028018,0.0161764 0.012944,-0.009932 m -0.022876,0.0228762 0.00993,-0.0129442 m -0.016174,0.028018 0.00624,-0.0150738 m -0.00837,0.03125 0.00213,-0.0161762 m -4e-7,0.0323524 -0.00213,-0.0161762 m 0.00837,0.03125 -0.00624,-0.0150738 m 0.016172,0.028018 -0.00993,-0.0129442 m 0.022874,0.0228766 -0.012944,-0.009932 m 0.028018,0.0161758 -0.015074,-0.006244 m 0.03125,0.008373 -0.016176,-0.00213 m 0.032352,3.9e-7 -0.016176,0.00213 m 0.03125,-0.008374 -0.015074,0.006244 m 0.028018,-0.0161764 -0.012944,0.009932" />
  <path
     id="line493"
     style="fill:none;stroke:#0a0000;stroke-width:0.001;stroke-linecap:round;stroke-linejoin:round;stroke-miterlimit:4"
     d="m 2.8458476,0.79420418 -0.012944,0.009932 m 0.022877,-0.0228762 -0.00993,0.0129442 m 0.016174,-0.028018 -0.00624,0.0150738 m 0.00837,-0.03125 -0.00213,0.0161762 m 2e-7,-0.0323524 0.00213,0.0161762 m -0.00837,-0.03125 0.00624,0.0150738 m -0.016173,-0.028018 0.00993,0.0129442 m -0.022874,-0.0228766 0.012944,0.009932 m -0.028018,-0.0161758 0.015074,0.006244 m -0.03125,-0.008374 0.016176,0.00213 m -0.032352,-3.8e-7 0.016176,-0.00213 m -0.03125,0.008374 0.015074,-0.006244 m -0.028018,0.0161764 0.012944,-0.009932 m -0.022877,0.0228762 0.00993,-0.0129442 m -0.016174,0.028018 0.00624,-0.0150738 m -0.00837,0.03125 0.00213,-0.0161762 m -4e-7,0.0323524 -0.00213,-0.0161762 m 0.00837,0.03125 -0.00624,-0.0150738 m 0.016173,0.028018 -0.00993,-0.0129442 m 0.022874,0.0228766 -0.012944,-0.009932 m 0.028018,0.0161758 -0.015074,-0.006244 m 0.03125,0.008374 -0.016176,-0.00213 m 0.032352,3.9e-7 -0.016176,0.00213 m 0.03125,-0.008374 -0.015074,0.006244" />
  <path
     id="line541"
     style="fill:none;stroke:#0a0000;stroke-width:0.001;stroke-linecap:round;stroke-linejoin:round;stroke-miterlimit:4"
     d="m 1.0946296,0.73383385 0.00624,-0.0150738 m -0.00837,0.03125 0.00213,-0.0161762 m -4e-7,0.0323524 -0.00213,-0.0161762 m 0.00837,0.03125 -0.00624,-0.0150738 m 0.016172,0.028018 -0.00993,-0.0129442 m 0.022874,0.0228766 -0.012944,-0.009932 m 0.028018,0.0161758 -0.015074,-0.006244 m 0.03125,0.008373 -0.016176,-0.00213 m 0.032352,3.9e-7 -0.016176,0.00213 m 0.03125,-0.008373 -0.015074,0.006244 m 0.028018,-0.0161764 -0.012944,0.009932 m 0.022877,-0.0228766 -0.00993,0.0129442 m 0.016174,-0.028018 -0.00624,0.0150738 m 0.00837,-0.03125 -0.00213,0.0161762 m 4e-7,-0.0323524 0.00213,0.0161762 m -0.00837,-0.03125 0.00624,0.0150738 m -0.016172,-0.028018 0.00993,0.0129442 m -0.022874,-0.0228766 0.012944,0.009932 m -0.028018,-0.0161758 0.015074,0.006244 m -0.03125,-0.008374 0.016176,0.00213 m -0.032352,-3.8e-7 0.016176,-0.00213 m -0.03125,0.008373 0.015074,-0.006244 m -0.028018,0.0161764 0.012944,-0.009932 m -0.022876,0.0228766 0.00993,-0.0129442" />
  <g
     inkscape:groupmode="layer"
     id="layer1"
     inkscape:label="AddedStuff" />
</svg>
