<?xml version="1.0" encoding="UTF-8" standalone="no"?>
<svg
   xmlns:dc="http://purl.org/dc/elements/1.1/"
   xmlns:cc="http://creativecommons.org/ns#"
   xmlns:rdf="http://www.w3.org/1999/02/22-rdf-syntax-ns#"
   xmlns:svg="http://www.w3.org/2000/svg"
   xmlns="http://www.w3.org/2000/svg"
   xmlns:sodipodi="http://sodipodi.sourceforge.net/DTD/sodipodi-0.dtd"
   xmlns:inkscape="http://www.inkscape.org/namespaces/inkscape"
   width="693.88452"
   height="484.26807"
   viewBox="0 0 7.7098282 5.3807561"
   version="1.1"
   id="svg2"
   inkscape:version="0.48.2 r9819"
   sodipodi:docname="motorButress.svg">
  <metadata
     id="metadata312">
    <rdf:RDF>
      <cc:Work
         rdf:about="">
        <dc:format>image/svg+xml</dc:format>
        <dc:type
           rdf:resource="http://purl.org/dc/dcmitype/StillImage" />
      </cc:Work>
    </rdf:RDF>
  </metadata>
  <defs
     id="defs310" />
  <sodipodi:namedview
     pagecolor="#ffffff"
     bordercolor="#666666"
     borderopacity="1"
     objecttolerance="10"
     gridtolerance="10"
     guidetolerance="10"
     inkscape:pageopacity="0"
     inkscape:pageshadow="2"
     inkscape:window-width="1535"
     inkscape:window-height="1289"
     id="namedview308"
     showgrid="false"
     inkscape:zoom="1.9443578"
     inkscape:cx="324.27067"
     inkscape:cy="269.90825"
     inkscape:window-x="962"
     inkscape:window-y="4"
     inkscape:window-maximized="0"
     inkscape:current-layer="layer1"
     inkscape:document-units="in"
     units="in"
     fit-margin-top="0.5"
     fit-margin-right="0.5"
     fit-margin-bottom="0.5"
     fit-margin-left="0.5" />
  <desc
     id="desc4">Output from Flights of Ideas SVG Sketchup Plugin</desc>
  <path
     style="fill:none;stroke:#0000ff;stroke-width:0.001;stroke-linecap:round;stroke-linejoin:round;stroke-miterlimit:4"
     d="M 3.0326848,0.50069427 0.50069445,4.5050616"
     id="line3382" />
  <path
     style="fill:none;stroke:#0000ff;stroke-width:0.001;stroke-linecap:round;stroke-linejoin:round;stroke-miterlimit:4"
     d="m 0.50069445,4.5050616 0,0.375"
     id="line3384" />
  <path
     style="fill:none;stroke:#0000ff;stroke-width:0.001;stroke-linecap:round;stroke-linejoin:round;stroke-miterlimit:4"
     d="m 0.50069445,4.8800616 3.22852525,0"
     id="line3386" />
  <path
     style="fill:none;stroke:#0000ff;stroke-width:0.001;stroke-linecap:round;stroke-linejoin:round;stroke-miterlimit:4"
     d="m 3.7292197,4.8800616 0,-4.37936733"
     id="line3388" />
  <path
     style="fill:none;stroke:#0000ff;stroke-width:0.001;stroke-linecap:round;stroke-linejoin:round;stroke-miterlimit:4"
     d="m 3.7292197,0.50069427 -0.6965349,0"
     id="line3390" />
  <path
     style="fill:none;stroke:#0000ff;stroke-width:0.001;stroke-linecap:round;stroke-linejoin:round;stroke-miterlimit:4"
     d="m 4.6771436,0.50069427 2.53199,4.00436733"
     id="line8" />
  <path
     style="fill:none;stroke:#0000ff;stroke-width:0.001;stroke-linecap:round;stroke-linejoin:round;stroke-miterlimit:4"
     d="m 7.2091336,4.5050616 0,0.375"
     id="line10" />
  <path
     style="fill:none;stroke:#0000ff;stroke-width:0.001;stroke-linecap:round;stroke-linejoin:round;stroke-miterlimit:4"
     d="m 7.2091336,4.8800616 -3.2285251,0"
     id="line12" />
  <path
     style="fill:none;stroke:#0000ff;stroke-width:0.001;stroke-linecap:round;stroke-linejoin:round;stroke-miterlimit:4"
     d="m 3.9806085,4.8800616 0,-4.37936733"
     id="line14" />
  <path
     style="fill:none;stroke:#0000ff;stroke-width:0.001;stroke-linecap:round;stroke-linejoin:round;stroke-miterlimit:4"
     d="m 3.9806085,0.50069427 0.6965351,0"
     id="line16" />
  <g
     inkscape:groupmode="layer"
     id="layer1"
     inkscape:label="newStuff"
     style="display:inline">
    <path
       transform="matrix(0.04813172,0.02048047,-0.02048047,0.04813172,-12.008179,-15.008464)"
       style="color:#000000;fill:none;stroke:#ff0000;stroke-width:0.01911759;stroke-linecap:butt;stroke-linejoin:miter;stroke-miterlimit:4;stroke-dashoffset:0;stroke-opacity:1;marker:none;visibility:visible;display:inline;overflow:visible;enable-background:accumulate"
       d="m 415.56138,171.63271 c 0,2.23685 -1.81333,4.05018 -4.05018,4.05018 -2.23685,0 -4.05018,-1.81333 -4.05018,-4.05018 0,-2.23686 1.81333,-4.05018 4.05018,-4.05018 2.23685,0 4.05018,1.81332 4.05018,4.05018 z"
       id="path4336" />
    <path
       transform="matrix(0.02027555,0,0,0.02027555,-4.0601727,-1.7994923)"
       style="color:#000000;fill:none;stroke:#ff0000;stroke-width:0.04932049;stroke-linecap:butt;stroke-linejoin:miter;stroke-miterlimit:4;stroke-dashoffset:0;stroke-opacity:1;marker:none;visibility:visible;display:inline;overflow:visible;enable-background:accumulate"
       d="m 415.56138,171.63271 c 0,2.23685 -1.81333,4.05018 -4.05018,4.05018 -2.23685,0 -4.05018,-1.81333 -4.05018,-4.05018 0,-2.23686 1.81333,-4.05018 4.05018,-4.05018 2.23685,0 4.05018,1.81332 4.05018,4.05018 z"
       id="path4338" />
    <path
       transform="matrix(0.04813172,0.02048047,-0.02048047,0.04813172,-12.008181,-15.795864)"
       style="color:#000000;fill:none;stroke:#ff0000;stroke-width:0.01911759;stroke-linecap:butt;stroke-linejoin:miter;stroke-miterlimit:4;stroke-dashoffset:0;stroke-opacity:1;marker:none;visibility:visible;display:inline;overflow:visible;enable-background:accumulate"
       d="m 415.56138,171.63271 c 0,2.23685 -1.81333,4.05018 -4.05018,4.05018 -2.23685,0 -4.05018,-1.81333 -4.05018,-4.05018 0,-2.23686 1.81333,-4.05018 4.05018,-4.05018 2.23685,0 4.05018,1.81332 4.05018,4.05018 z"
       id="path4342" />
    <path
       transform="matrix(0.02027555,0,0,0.02027555,-4.0601747,-2.5868927)"
       style="color:#000000;fill:none;stroke:#ff0000;stroke-width:0.04932049;stroke-linecap:butt;stroke-linejoin:miter;stroke-miterlimit:4;stroke-dashoffset:0;stroke-opacity:1;marker:none;visibility:visible;display:inline;overflow:visible;enable-background:accumulate"
       d="m 415.56138,171.63271 c 0,2.23685 -1.81333,4.05018 -4.05018,4.05018 -2.23685,0 -4.05018,-1.81333 -4.05018,-4.05018 0,-2.23686 1.81333,-4.05018 4.05018,-4.05018 2.23685,0 4.05018,1.81332 4.05018,4.05018 z"
       id="path4344" />
    <path
       transform="matrix(0.04813172,0.02048047,-0.02048047,0.04813172,-12.86524,-15.795864)"
       style="color:#000000;fill:none;stroke:#ff0000;stroke-width:0.01911759;stroke-linecap:butt;stroke-linejoin:miter;stroke-miterlimit:4;stroke-dashoffset:0;stroke-opacity:1;marker:none;visibility:visible;display:inline;overflow:visible;enable-background:accumulate"
       d="m 415.56138,171.63271 c 0,2.23685 -1.81333,4.05018 -4.05018,4.05018 -2.23685,0 -4.05018,-1.81333 -4.05018,-4.05018 0,-2.23686 1.81333,-4.05018 4.05018,-4.05018 2.23685,0 4.05018,1.81332 4.05018,4.05018 z"
       id="path4348" />
    <path
       transform="matrix(0.02027555,0,0,0.02027555,-4.9172333,-2.5868927)"
       style="color:#000000;fill:none;stroke:#ff0000;stroke-width:0.04932049;stroke-linecap:butt;stroke-linejoin:miter;stroke-miterlimit:4;stroke-dashoffset:0;stroke-opacity:1;marker:none;visibility:visible;display:inline;overflow:visible;enable-background:accumulate"
       d="m 415.56138,171.63271 c 0,2.23685 -1.81333,4.05018 -4.05018,4.05018 -2.23685,0 -4.05018,-1.81333 -4.05018,-4.05018 0,-2.23686 1.81333,-4.05018 4.05018,-4.05018 2.23685,0 4.05018,1.81332 4.05018,4.05018 z"
       id="path4350" />
    <path
       transform="matrix(0.04813172,0.02048047,-0.02048047,0.04813172,-12.86524,-15.008465)"
       style="color:#000000;fill:none;stroke:#ff0000;stroke-width:0.01911759;stroke-linecap:butt;stroke-linejoin:miter;stroke-miterlimit:4;stroke-dashoffset:0;stroke-opacity:1;marker:none;visibility:visible;display:inline;overflow:visible;enable-background:accumulate"
       d="m 415.56138,171.63271 c 0,2.23685 -1.81333,4.05018 -4.05018,4.05018 -2.23685,0 -4.05018,-1.81333 -4.05018,-4.05018 0,-2.23686 1.81333,-4.05018 4.05018,-4.05018 2.23685,0 4.05018,1.81332 4.05018,4.05018 z"
       id="path3815" />
    <path
       transform="matrix(0.02027555,0,0,0.02027555,-4.9172336,-1.7994934)"
       style="color:#000000;fill:none;stroke:#ff0000;stroke-width:0.04932049;stroke-linecap:butt;stroke-linejoin:miter;stroke-miterlimit:4;stroke-dashoffset:0;stroke-opacity:1;marker:none;visibility:visible;display:inline;overflow:visible;enable-background:accumulate"
       d="m 415.56138,171.63271 c 0,2.23685 -1.81333,4.05018 -4.05018,4.05018 -2.23685,0 -4.05018,-1.81333 -4.05018,-4.05018 0,-2.23686 1.81333,-4.05018 4.05018,-4.05018 2.23685,0 4.05018,1.81332 4.05018,4.05018 z"
       id="path4325" />
  </g>
</svg>
