<?xml version="1.0" encoding="UTF-8" standalone="no"?>
<svg
   xmlns:dc="http://purl.org/dc/elements/1.1/"
   xmlns:cc="http://creativecommons.org/ns#"
   xmlns:rdf="http://www.w3.org/1999/02/22-rdf-syntax-ns#"
   xmlns:svg="http://www.w3.org/2000/svg"
   xmlns="http://www.w3.org/2000/svg"
   xmlns:sodipodi="http://sodipodi.sourceforge.net/DTD/sodipodi-0.dtd"
   xmlns:inkscape="http://www.inkscape.org/namespaces/inkscape"
   width="404.99994"
   height="475.35831"
   viewBox="0 0 4.4999994 5.2817589"
   version="1.1"
   id="svg2"
   inkscape:version="0.48.0 r9654"
   sodipodi:docname="motorBase2.svg">
  <metadata
     id="metadata19">
    <rdf:RDF>
      <cc:Work
         rdf:about="">
        <dc:format>image/svg+xml</dc:format>
        <dc:type
           rdf:resource="http://purl.org/dc/dcmitype/StillImage" />
      </cc:Work>
    </rdf:RDF>
  </metadata>
  <defs
     id="defs17" />
  <sodipodi:namedview
     pagecolor="#ffffff"
     bordercolor="#666666"
     borderopacity="1"
     objecttolerance="10"
     gridtolerance="10"
     guidetolerance="10"
     inkscape:pageopacity="0"
     inkscape:pageshadow="2"
     inkscape:window-width="1356"
     inkscape:window-height="907"
     id="namedview15"
     showgrid="false"
     inkscape:zoom="1.0207612"
     inkscape:cx="146.86799"
     inkscape:cy="149.88736"
     inkscape:window-x="0"
     inkscape:window-y="0"
     inkscape:window-maximized="0"
     inkscape:current-layer="svg2"
     units="in"
     fit-margin-top="0.5"
     fit-margin-right="0.5"
     fit-margin-bottom="0.5"
     fit-margin-left="0.5"
     inkscape:document-units="in" />
  <desc
     id="desc4">Output from Flights of Ideas SVG Sketchup Plugin</desc>
  <path
     style="fill:none;stroke:#0000ff;stroke-width:0.00106413;stroke-linecap:round;stroke-linejoin:round;stroke-miterlimit:4;stroke-dasharray:none"
     d="m 3.8601357,4.7810644 0,-4.28037006 -3.22852517,0 0,4.28037006 3.22852517,0"
     id="path3008"
     inkscape:connector-curvature="0" />
  <path
     style="fill:none;stroke:#0000ff;stroke-width:0.001;stroke-linecap:round;stroke-linejoin:round;stroke-miterlimit:4;stroke-dasharray:none"
     d="m 3.1297397,3.3931944 -0.00335,0.0255 -0.00983,0.0237 -0.015642,0.0204 -0.020385,0.0156 -0.023738,0.01 -0.025474,0.003 -0.025474,-0.003 -0.023738,-0.01 -0.020385,-0.0156 -0.015642,-0.0204 -0.00983,-0.0237 -0.00335,-0.0255 0.00335,-0.0255 0.00983,-0.0237 0.015642,-0.0204 0.020385,-0.0156 0.023738,-0.01 0.025474,-0.003 0.025474,0.003 0.023738,0.01 0.020385,0.0156 0.015642,0.0204 0.00983,0.0237 0.00335,0.0255"
     id="path3006"
     inkscape:connector-curvature="0" />
  <path
     style="fill:none;stroke:#0000ff;stroke-width:0.001;stroke-linecap:round;stroke-linejoin:round;stroke-miterlimit:4;stroke-dasharray:none"
     d="m 1.3098597,1.6436644 -0.00335,-0.0255 0.00335,-0.0255 0.00983,-0.0237 0.015642,-0.0204 0.020385,-0.0156 0.023738,-0.01 0.025474,-0.003 0.025474,0.003 0.023738,0.01 0.020385,0.0156 0.015642,0.0204 0.00983,0.0237 0.00335,0.0255 -0.00335,0.0255 -0.00983,0.0237 -0.015642,0.0204 -0.020385,0.0156 -0.023738,0.01 -0.025474,0.003 -0.025474,-0.003 -0.023738,-0.01 -0.020385,-0.0156 -0.015642,-0.0204 -0.00983,-0.0237"
     id="face0-cut"
     inkscape:connector-curvature="0" />
  <path
     style="fill:none;stroke:#0000ff;stroke-width:0.00104473;stroke-linecap:round;stroke-linejoin:round;stroke-miterlimit:4;stroke-dasharray:none"
     d="m 0.50069445,4.7810644 3.49861045,0 0,-0.50361 -3.49861045,0 0,0.50361"
     id="path3002"
     inkscape:connector-curvature="0" />
  <path
     id="path3014"
     d="m 0.99198088,4.5159044 0.00213,0.0162 -0.00213,0.0162 -0.006244,0.0151 -0.009932,0.0129 -0.0129442,0.01 -0.0150738,0.006 -0.0161764,0.002 -0.0161762,-0.002 -0.0150738,-0.006 -0.0129442,-0.01 -0.009932,-0.0129 -0.006244,-0.0151 -0.00213,-0.0162 0.00213,-0.0162 0.006244,-0.0151 0.009932,-0.0129 0.0129442,-0.01 0.0150738,-0.006 0.0161762,-0.002 0.0161762,0.002 0.0150738,0.006 0.0129442,0.01 0.009932,0.0129 0.006244,0.0151"
     style="fill:none;stroke:#0000ff;stroke-width:0.001;stroke-linecap:round;stroke-linejoin:round;stroke-miterlimit:4;stroke-dasharray:none"
     inkscape:connector-curvature="0" />
  <path
     id="path3012"
     d="m 3.6048764,4.5482644 -0.00624,0.0151 -0.00993,0.0129 -0.012944,0.01 -0.015074,0.006 -0.016176,0.002 -0.016176,-0.002 -0.015074,-0.006 -0.012944,-0.01 -0.00993,-0.0129 -0.00624,-0.0151 -0.00213,-0.0162 0.00213,-0.0162 0.00624,-0.0151 0.00993,-0.0129 0.012944,-0.01 0.015074,-0.006 0.016176,-0.002 0.016176,0.002 0.015074,0.006 0.012944,0.01 0.00993,0.0129 0.00624,0.0151 0.00213,0.0162 -0.00213,0.0162"
     style="fill:none;stroke:#0000ff;stroke-width:0.001;stroke-linecap:round;stroke-linejoin:round;stroke-miterlimit:4;stroke-dasharray:none"
     inkscape:connector-curvature="0" />
  <path
     style="fill:none;stroke:#0000ff;stroke-width:0.001;stroke-linecap:round;stroke-linejoin:round;stroke-miterlimit:4;stroke-dasharray:none"
     d="m 2.2458729,4.4695844 0.016176,0.002 0.015074,0.006 0.012944,0.01 0.00993,0.0129 0.00624,0.0151 0.00213,0.0162 -0.00213,0.0162 -0.00624,0.0151 -0.00993,0.0129 -0.012944,0.01 -0.015074,0.006 -0.016176,0.002 -0.016176,-0.002 -0.015074,-0.006 -0.012944,-0.01 -0.00993,-0.0129 -0.00624,-0.0151 -0.00213,-0.0162 0.00213,-0.0162 0.00624,-0.0151 0.00993,-0.0129 0.012944,-0.01 0.015074,-0.006 0.016176,-0.002"
     id="face1-cut"
     inkscape:connector-curvature="0" />
  <path
     id="face0-interior"
     style="fill:none;stroke:#ff0000;stroke-width:0.001;stroke-linecap:round;stroke-linejoin:round;stroke-miterlimit:4;stroke-dasharray:none"
     d="m 3.8601357,4.2806944 m 0,-3.78000006 m -3.22852517,0 m 0,3.78000006 m 2.49812917,-0.8875 m -0.00335,0.0255 m -0.00983,0.0237 m -0.015642,0.0204 m -0.020385,0.0156 m -0.023738,0.01 m -0.025474,0.003 m -0.025474,-0.003 m -0.023738,-0.01 m -0.020385,-0.0156 m -0.015642,-0.0204 m -0.00983,-0.0237 m -0.00336,-0.0255 m 0.00335,-0.0255 m 0.00983,-0.0237 m 0.015642,-0.0204 m 0.020385,-0.0156 m 0.023738,-0.01 m 0.025474,-0.003 m 0.025474,0.003 m 0.023738,0.01 m 0.020385,0.0156 m 0.015642,0.0204 m 0.00983,0.0237 M 1.309862,1.6436344 m -0.00335,-0.0255 m 0.00335,-0.0255 m 0.00983,-0.0237 m 0.015642,-0.0204 m 0.020385,-0.0156 m 0.023738,-0.01 m 0.025474,-0.003 m 0.025474,0.003 m 0.023738,0.01 m 0.020385,0.0156 m 0.015642,0.0204 M 1.5,1.5926344 m 0.00335,0.0255 M 1.5,1.6436344 m -0.00983,0.0237 m -0.015642,0.0204 m -0.020385,0.0156 m -0.023738,0.01 m -0.025474,0.003 m -0.025474,-0.003 m -0.023738,-0.01 m -0.020385,-0.0156 m -0.015642,-0.0204"
     inkscape:connector-curvature="0" />
  <path
     id="path11"
     style="fill:none;stroke:#00ff00;stroke-width:0.001;stroke-linecap:round;stroke-linejoin:round;stroke-miterlimit:4;stroke-dasharray:none"
     d="m 3.8601357,4.2806944 m 0,-3.78000006 m -3.22852517,0 m 0,3.78000006 m 2.49812917,-0.8875 m -0.00335,0.0255 m -0.00983,0.0237 m -0.015642,0.0204 m -0.020385,0.0156 m -0.023738,0.01 m -0.025474,0.003 m -0.025474,-0.003 m -0.023738,-0.01 m -0.020385,-0.0156 m -0.015642,-0.0204 m -0.00983,-0.0237 m -0.00336,-0.0255 m 0.00335,-0.0255 m 0.00983,-0.0237 m 0.015642,-0.0204 m 0.020385,-0.0156 m 0.023738,-0.01 m 0.025474,-0.003 m 0.025474,0.003 m 0.023738,0.01 m 0.020385,0.0156 m 0.015642,0.0204 m 0.00983,0.0237 M 1.309862,1.6436344 m -0.00335,-0.0255 m 0.00335,-0.0255 m 0.00983,-0.0237 m 0.015642,-0.0204 m 0.020385,-0.0156 m 0.023738,-0.01 m 0.025474,-0.003 m 0.025474,0.003 m 0.023738,0.01 m 0.020385,0.0156 m 0.015642,0.0204 M 1.5,1.5926344 m 0.00335,0.0255 M 1.5,1.6436344 m -0.00983,0.0237 m -0.015642,0.0204 m -0.020385,0.0156 m -0.023738,0.01 m -0.025474,0.003 m -0.025474,-0.003 m -0.023738,-0.01 m -0.020385,-0.0156 m -0.015642,-0.0204"
     inkscape:connector-curvature="0" />
</svg>
