<?xml version="1.0" encoding="UTF-8" standalone="no"?>
<svg
   xmlns:dc="http://purl.org/dc/elements/1.1/"
   xmlns:cc="http://creativecommons.org/ns#"
   xmlns:rdf="http://www.w3.org/1999/02/22-rdf-syntax-ns#"
   xmlns:svg="http://www.w3.org/2000/svg"
   xmlns="http://www.w3.org/2000/svg"
   xmlns:sodipodi="http://sodipodi.sourceforge.net/DTD/sodipodi-0.dtd"
   xmlns:inkscape="http://www.inkscape.org/namespaces/inkscape"
   width="696.31128"
   height="484.26767"
   viewBox="0 0 7.7367922 5.3807517"
   version="1.1"
   id="svg3041"
   inkscape:version="0.48.2 r9819"
   sodipodi:docname="motorButressAndBase2.svg">
  <metadata
     id="metadata3053">
    <rdf:RDF>
      <cc:Work
         rdf:about="">
        <dc:format>image/svg+xml</dc:format>
        <dc:type
           rdf:resource="http://purl.org/dc/dcmitype/StillImage" />
        <dc:title></dc:title>
      </cc:Work>
    </rdf:RDF>
  </metadata>
  <defs
     id="defs3051" />
  <sodipodi:namedview
     pagecolor="#ffffff"
     bordercolor="#666666"
     borderopacity="1"
     objecttolerance="10"
     gridtolerance="10"
     guidetolerance="10"
     inkscape:pageopacity="0"
     inkscape:pageshadow="2"
     inkscape:window-width="1465"
     inkscape:window-height="917"
     id="namedview3049"
     showgrid="false"
     units="in"
     inkscape:document-units="in"
     fit-margin-top="0.5"
     fit-margin-right="0.5"
     fit-margin-bottom="0.5"
     fit-margin-left="0.5"
     inkscape:zoom="1.1546174"
     inkscape:cx="352.17437"
     inkscape:cy="188.91187"
     inkscape:window-x="1002"
     inkscape:window-y="285"
     inkscape:window-maximized="0"
     inkscape:current-layer="svg3041" />
  <desc
     id="desc3043">Output from Flights of Ideas SVG Sketchup Plugin</desc>
  <path
     style="fill:none;stroke:#0000ff;stroke-width:0.001;stroke-linecap:round;stroke-linejoin:round;stroke-miterlimit:4;stroke-dasharray:none"
     d="m 4.7041071,0.50069722 2.5319903,4.00435998 0,0.375 -3.2285252,0 0,-4.37935998 0.6965349,0"
     id="path3448"
     inkscape:connector-curvature="0" />
  <path
     style="fill:none;stroke:#0000ff;stroke-width:0.001;stroke-linecap:round;stroke-linejoin:round;stroke-miterlimit:4;stroke-dasharray:none"
     d="m 4.4922717,1.7854572 c 0.023854,-0.046726 0.034178,-0.1009811 0.021503,-0.1525194 -0.019774,-0.090477 -0.1058688,-0.1610324 -0.1987666,-0.161028 -0.089853,-0.00376 -0.1773947,0.058481 -0.2032172,0.1446458 -0.030121,0.087731 0.00803,0.1926813 0.087484,0.2405552 0.043522,0.028625 0.097462,0.037374 0.1484297,0.028971 0.052207,-0.00994 0.1011708,-0.039392 0.1314114,-0.083471 0.00438,-0.00572 0.00878,-0.011435 0.013155,-0.017154 z"
     id="path3446"
     inkscape:connector-curvature="0" />
  <path
     style="fill:none;stroke:#0000ff;stroke-width:0.001;stroke-linecap:round;stroke-linejoin:round;stroke-miterlimit:4;stroke-dasharray:none"
     d="M 4.128541,0.78804722 C 4.104687,0.83477342 4.094363,0.88902864 4.107038,0.94056714 4.1268116,1.0310442 4.2129068,1.1015995 4.3058044,1.1015959 c 0.089853,0.00376 0.1773941,-0.058481 0.2032171,-0.14464517 0.030121,-0.0877315 -0.00803,-0.19267987 -0.087484,-0.24055456 -0.043521,-0.0286241 -0.097463,-0.0373756 -0.1484293,-0.0289647 -0.052208,0.009937 -0.1011684,0.0393959 -0.1314136,0.0834724 -0.00438,0.005713 -0.00877,0.011436 -0.013154,0.0171434 z"
     id="face0-cut"
     inkscape:connector-curvature="0" />
  <path
     style="fill:none;stroke:#0000ff;stroke-width:0.00106413;stroke-linecap:round;stroke-linejoin:round;stroke-miterlimit:4;stroke-dasharray:none"
     d="m 0.6398637,4.7810643 0,-4.28037002 3.2285252,0 0,4.28037002 -3.2285252,0"
     id="path3008"
     inkscape:connector-curvature="0" />
  <path
     style="fill:none;stroke:#0000ff;stroke-width:0.001;stroke-linecap:round;stroke-linejoin:round;stroke-miterlimit:4;stroke-dasharray:none"
     d="m 1.3702597,3.3931943 c 6.489e-4,0.041415 0.028338,0.080707 0.068169,0.093202 0.038787,0.012704 0.085198,-0.00124 0.1087354,-0.035111 0.02511,-0.032087 0.025838,-0.080849 0.0018,-0.1136933 -0.022439,-0.034618 -0.06746,-0.049183 -0.1067815,-0.039162 -0.033605,0.010305 -0.061092,0.038124 -0.069004,0.072594 -9.73e-4,0.00739 -0.00194,0.01479 -0.00292,0.02217 z"
     id="path3006"
     inkscape:connector-curvature="0" />
  <path
     style="fill:none;stroke:#0000ff;stroke-width:0.001;stroke-linecap:round;stroke-linejoin:round;stroke-miterlimit:4;stroke-dasharray:none"
     d="m 3.1901397,1.6436643 c 0.010079,-0.040267 -0.00652,-0.085673 -0.042094,-0.1078328 -0.033954,-0.022364 -0.082484,-0.020486 -0.1137593,0.00592 -0.032574,0.024496 -0.045867,0.071415 -0.031158,0.1093693 0.012852,0.038994 0.052788,0.065958 0.093597,0.065048 0.035029,-4.982e-4 0.06834,-0.021108 0.084857,-0.051906 0.00285,-0.00686 0.00569,-0.013751 0.00856,-0.020599 z"
     id="face0-cut-2"
     inkscape:connector-curvature="0" />
  <path
     style="fill:none;stroke:#0000ff;stroke-width:0.00104473;stroke-linecap:round;stroke-linejoin:round;stroke-miterlimit:4;stroke-dasharray:none"
     d="m 3.999305,4.7810643 -3.4986105,0 0,-0.50361 3.4986105,0 0,0.50361"
     id="path3002"
     inkscape:connector-curvature="0" />
  <path
     style="fill:none;stroke:#0000ff;stroke-width:0.001;stroke-linecap:round;stroke-linejoin:round;stroke-miterlimit:4;stroke-dasharray:none"
     d="m 3.5080185,4.5159043 c -0.011023,0.03826 0.021334,0.080436 0.061423,0.078264 0.042679,0.00118 0.074769,-0.048565 0.055804,-0.086819 -0.015754,-0.042951 -0.081414,-0.050286 -0.1065833,-0.012298 -0.00558,0.00577 -0.00736,0.013775 -0.010644,0.020853 z"
     id="path3440"
     inkscape:connector-curvature="0" />
  <path
     style="fill:none;stroke:#0000ff;stroke-width:0.001;stroke-linecap:round;stroke-linejoin:round;stroke-miterlimit:4;stroke-dasharray:none"
     d="m 4.212321,0.86659232 c -0.010348,0.0416214 0.00648,0.0884757 0.043068,0.1116955 0.034936,0.022539 0.084927,0.021232 0.1172536,-0.005581 0.03392,-0.0252943 0.047679,-0.0738689 0.032845,-0.11333261 -0.012983,-0.0407836 -0.054334,-0.0685815 -0.096803,-0.0676859 -0.036044,6.3515e-4 -0.070228,0.0211725 -0.087323,0.0529177 -0.00301,0.007329 -0.00603,0.0146579 -0.00904,0.0219863 z"
     id="path3450"
     inkscape:connector-curvature="0" />
  <path
     style="fill:none;stroke:#0000ff;stroke-width:0.001;stroke-linecap:round;stroke-linejoin:round;stroke-miterlimit:4;stroke-dasharray:none"
     d="m 4.2123217,1.6539972 c -0.010348,0.041621 0.00648,0.088476 0.043068,0.1116949 0.034935,0.02254 0.084927,0.021232 0.1172536,-0.00558 0.033922,-0.025294 0.04768,-0.07387 0.032846,-0.1133343 -0.012984,-0.040778 -0.054334,-0.068587 -0.096803,-0.067675 -0.036044,6.241e-4 -0.070229,0.021166 -0.087323,0.052909 -0.00301,0.00733 -0.00603,0.014659 -0.00904,0.021986 z"
     id="path3014"
     inkscape:connector-curvature="0" />
  <path
     style="fill:none;stroke:#0000ff;stroke-width:0.001;stroke-linecap:round;stroke-linejoin:round;stroke-miterlimit:4;stroke-dasharray:none"
     d="m 0.895123,4.5482643 c 0.010536,0.047534 0.081275,0.062506 0.1095584,0.02239 0.024385,-0.030861 0.012321,-0.082375 -0.025472,-0.096254 -0.041259,-0.01822 -0.094141,0.019931 -0.08519,0.065429 l 0.0011,0.00844 2.9e-6,-4.3e-6 z"
     id="path3012"
     inkscape:connector-curvature="0" />
  <path
     style="fill:none;stroke:#0000ff;stroke-width:0.001;stroke-linecap:round;stroke-linejoin:round;stroke-miterlimit:4;stroke-dasharray:none"
     d="m 2.2541265,4.4695843 c -0.04584,-0.00223 -0.0789,0.055018 -0.054103,0.093732 0.020789,0.036599 0.078868,0.041169 0.103753,0.00639 0.028277,-0.034831 0.0052,-0.096104 -0.040895,-0.099044 -0.00292,-3.589e-4 -0.00584,-7.179e-4 -0.00876,-0.00108 z"
     id="face1-cut"
     inkscape:connector-curvature="0" />
  <path
     id="face0-interior-6"
     style="fill:none;stroke:#ff0000;stroke-width:0.001;stroke-linecap:round;stroke-linejoin:round;stroke-miterlimit:4;stroke-dasharray:none"
     d="m 0.6398637,4.2806943 m 0,-3.78000002 m 3.2285252,0 m 0,3.78000002 m -2.4981292,-0.8875 m 0.00335,0.0255 m 0.00983,0.0237 m 0.015642,0.0204 m 0.020385,0.0156 m 0.023738,0.01 m 0.025474,0.003 m 0.025474,-0.003 m 0.023738,-0.01 m 0.020385,-0.0156 m 0.015642,-0.0204 m 0.00983,-0.0237 m 0.00336,-0.0255 m -0.00335,-0.0255 m -0.00983,-0.0237 m -0.015642,-0.0204 m -0.020385,-0.0156 m -0.023738,-0.01 m -0.025474,-0.003 m -0.025474,0.003 m -0.023738,0.01 m -0.020385,0.0156 m -0.015642,0.0204 m -0.00983,0.0237 m 1.8165177,-1.72406 m 0.00335,-0.0255 m -0.00335,-0.0255 m -0.00983,-0.0237 m -0.015642,-0.0204 m -0.020385,-0.0156 m -0.023738,-0.01 m -0.025474,-0.003 m -0.025474,0.003 m -0.023738,0.01 m -0.020385,0.0156 m -0.015642,0.0204 m -0.00983,0.0237 m -0.00335,0.0255 m 0.00335,0.0255 m 0.00983,0.0237 m 0.015642,0.0204 m 0.020385,0.0156 m 0.023738,0.01 m 0.025474,0.003 m 0.025474,-0.003 m 0.023738,-0.01 m 0.020385,-0.0156 m 0.015642,-0.0204"
     inkscape:connector-curvature="0" />
  <path
     id="path11"
     style="fill:none;stroke:#00ff00;stroke-width:0.001;stroke-linecap:round;stroke-linejoin:round;stroke-miterlimit:4;stroke-dasharray:none"
     d="m 0.6398637,4.2806943 m 0,-3.78000002 m 3.2285252,0 m 0,3.78000002 m -2.4981292,-0.8875 m 0.00335,0.0255 m 0.00983,0.0237 m 0.015642,0.0204 m 0.020385,0.0156 m 0.023738,0.01 m 0.025474,0.003 m 0.025474,-0.003 m 0.023738,-0.01 m 0.020385,-0.0156 m 0.015642,-0.0204 m 0.00983,-0.0237 m 0.00336,-0.0255 m -0.00335,-0.0255 m -0.00983,-0.0237 m -0.015642,-0.0204 m -0.020385,-0.0156 m -0.023738,-0.01 m -0.025474,-0.003 m -0.025474,0.003 m -0.023738,0.01 m -0.020385,0.0156 m -0.015642,0.0204 m -0.00983,0.0237 m 1.8165177,-1.72406 m 0.00335,-0.0255 m -0.00335,-0.0255 m -0.00983,-0.0237 m -0.015642,-0.0204 m -0.020385,-0.0156 m -0.023738,-0.01 m -0.025474,-0.003 m -0.025474,0.003 m -0.023738,0.01 m -0.020385,0.0156 m -0.015642,0.0204 m -0.00983,0.0237 m -0.00335,0.0255 m 0.00335,0.0255 m 0.00983,0.0237 m 0.015642,0.0204 m 0.020385,0.0156 m 0.023738,0.01 m 0.025474,0.003 m 0.025474,-0.003 m 0.023738,-0.01 m 0.020385,-0.0156 m 0.015642,-0.0204"
     inkscape:connector-curvature="0" />
</svg>
