<?xml version="1.0" standalone="no"?>
<!DOCTYPE svg PUBLIC "-//W3C//DTD SVG 1.1//EN" "http://www.w3.org/Graphics/SVG/1.1/DTD/svg11.dtd">
<svg width="1.99999999898in" height="4.49999999694in"
 viewBox="0 0 1.99999999898 4.49999999694"
 xmlns="http://www.w3.org/2000/svg" version="1.1"
 xmlns:xlink="http://www.w3.org/1999/xlink">
<desc>Output from Flights of Ideas SVG Sketchup Plugin</desc>

  <path id="face0-cut"
 style="fill:none;stroke:rgb(10,0,0);stroke-width:0;stroke-miterlimit:4;stroke-dasharray:none;stroke-linejoin:round;stroke-linecap:round"
        d="M 1.099999999388,1.99999999847 L 1.49999999898,1.99999999847 L 1.49999999898,0.5 L 1.099999999388,0.5 L 1.099999999388,1.99999999847 "
  />
  <path id="face1-cut"
 style="fill:none;stroke:rgb(10,0,0);stroke-width:0;stroke-miterlimit:4;stroke-dasharray:none;stroke-linejoin:round;stroke-linecap:round"
        d="M 0.899999999591999,1.99999999847 L 0.899999999591999,0.5 L 0.5,0.5 L 0.5,1.99999999847 L 0.899999999591999,1.99999999847 "
  />
  <path id="face2-cut"
 style="fill:none;stroke:rgb(10,0,0);stroke-width:0;stroke-miterlimit:4;stroke-dasharray:none;stroke-linejoin:round;stroke-linecap:round"
        d="M 0.699999999796003,2.49999999847 L 0.5,2.49999999847 L 0.5,3.99999999694 L 0.699999999796003,3.99999999694 L 0.699999999796003,2.49999999847 M 0.545873412216684,3.21874999773688 L 0.55580582611892,3.20580582392592 L 0.568749999929876,3.19587341002368 L 0.583823809595593,3.18962963362351 L 0.599999999898001,3.18749999776875 L 0.61617619020041,3.18962963362351 L 0.631249999866127,3.19587341002368 L 0.644194173677083,3.20580582392592 L 0.654126587579319,3.21874999773688 L 0.66037036397949,3.23382380740259 L 0.662499999834251,3.249999997705 L 0.66037036397949,3.26617618800741 L 0.654126587579319,3.28124999767313 L 0.644194173677083,3.29419417148408 L 0.631249999866126,3.30412658538632 L 0.61617619020041,3.31037036178649 L 0.599999999898001,3.31249999764125 L 0.583823809595593,3.31037036178649 L 0.568749999929877,3.30412658538632 L 0.55580582611892,3.29419417148408 L 0.545873412216684,3.28124999767313 L 0.539629635816513,3.26617618800741 L 0.537499999961751,3.249999997705 L 0.539629635816513,3.23382380740259 L 0.545873412216684,3.21874999773688 "
  />
</svg>
