<?xml version="1.0" encoding="UTF-8" standalone="no"?>
<svg
   xmlns:dc="http://purl.org/dc/elements/1.1/"
   xmlns:cc="http://creativecommons.org/ns#"
   xmlns:rdf="http://www.w3.org/1999/02/22-rdf-syntax-ns#"
   xmlns:svg="http://www.w3.org/2000/svg"
   xmlns="http://www.w3.org/2000/svg"
   xmlns:sodipodi="http://sodipodi.sourceforge.net/DTD/sodipodi-0.dtd"
   xmlns:inkscape="http://www.inkscape.org/namespaces/inkscape"
   width="430.76318"
   height="357.63818"
   viewBox="0 0 4.7862578 3.9737575"
   version="1.1"
   id="svg2"
   inkscape:version="0.48.2 r9819"
   sodipodi:docname="TopFoxBlock.svg">
  <metadata
     id="metadata15">
    <rdf:RDF>
      <cc:Work
         rdf:about="">
        <dc:format>image/svg+xml</dc:format>
        <dc:type
           rdf:resource="http://purl.org/dc/dcmitype/StillImage" />
      </cc:Work>
    </rdf:RDF>
  </metadata>
  <defs
     id="defs13" />
  <sodipodi:namedview
     pagecolor="#ffffff"
     bordercolor="#666666"
     borderopacity="1"
     objecttolerance="10"
     gridtolerance="10"
     guidetolerance="10"
     inkscape:pageopacity="0"
     inkscape:pageshadow="2"
     inkscape:window-width="1481"
     inkscape:window-height="1207"
     id="namedview11"
     showgrid="false"
     inkscape:zoom="1.4142136"
     inkscape:cx="284.7494"
     inkscape:cy="34.795463"
     inkscape:window-x="916"
     inkscape:window-y="67"
     inkscape:window-maximized="0"
     inkscape:current-layer="svg2"
     units="in"
     inkscape:document-units="in"
     fit-margin-top="0.5"
     fit-margin-right="0.5"
     fit-margin-bottom="0.5"
     fit-margin-left="0.5"
     showguides="true"
     inkscape:guide-bbox="true" />
  <desc
     id="desc4">Output from Flights of Ideas SVG Sketchup Plugin</desc>
  <path
     id="face0-cut"
     style="fill:none;stroke:#0000ff;stroke-width:0.001;stroke-linecap:round;stroke-linejoin:round;stroke-miterlimit:4;stroke-dasharray:none"
     d="m 0.19000843,3.4358898 0.24594437,0 -4.56e-6,-2.87052999 -0.24594437,0 4.56e-6,2.87052999"
     inkscape:connector-curvature="0"
     sodipodi:nodetypes="ccccc" />
  <path
     id="face1-cut"
     style="fill:none;stroke:#0000ff;stroke-width:0.001;stroke-linecap:round;stroke-linejoin:round;stroke-miterlimit:4;stroke-dasharray:none"
     d="m 4.5995066,0.56498981 -0.2263788,0 -1.671e-4,2.87089999 0.2263789,0 1.67e-4,-2.87089999"
     inkscape:connector-curvature="0" />
  <path
     style="fill:none;stroke:#0000ff;stroke-width:0.08999986;stroke-linecap:round;stroke-linejoin:round;stroke-miterlimit:4;stroke-dasharray:none"
     d="M 297.15625 50.84375 L 297.15625 123.59375 C 298.19708 124.60246 298.84375 126.02967 298.84375 127.59375 C 298.84375 129.14938 298.18722 130.52366 297.15625 131.53125 C 296.15611 132.50872 294.79003 133.125 293.28125 133.125 C 291.76518 133.125 290.40765 132.51708 289.40625 131.53125 L 108 131.53125 C 106.98911 132.59339 105.551 133.25 103.96875 133.25 C 102.38849 133.25 100.97941 132.59106 99.96875 131.53125 C 99.019339 130.53567 98.4375 129.2029 98.4375 127.71875 C 98.4375 126.23261 99.017084 124.87096 99.96875 123.875 L 99.96875 50.875 L 17.09375 50.875 L 17.09375 309.21875 L 85.3125 309.21875 L 85.3125 285.875 C 84.290148 284.86843 83.65625 283.45448 83.65625 281.90625 C 83.65625 280.36592 84.299312 279.00542 85.3125 278 C 86.315222 277.00496 87.694674 276.375 89.21875 276.375 C 90.750779 276.375 92.121015 276.99579 93.125 278 L 110.9375 278 C 111.94813 276.94058 113.38882 276.28125 114.96875 276.28125 C 118.03351 276.28125 120.5 278.77969 120.5 281.84375 C 120.5 283.37578 119.87921 284.74602 118.875 285.75 L 118.875 309.21875 L 164.3125 309.21875 L 164.3125 285.90625 C 163.27167 284.89754 162.625 283.47033 162.625 281.90625 C 162.625 278.84149 165.12344 276.375 168.1875 276.375 C 169.71953 276.375 171.08977 276.99579 172.09375 278 L 189.59375 278 C 190.60464 276.93786 192.04275 276.28125 193.625 276.28125 C 195.19728 276.28125 196.58402 276.94957 197.59375 278 C 198.55222 278.99711 199.15625 280.32037 199.15625 281.8125 C 199.15625 283.31394 198.56282 284.68867 197.59375 285.6875 L 197.59375 309.21875 L 235.1875 309.21875 L 235.1875 285.90625 C 234.14486 284.89735 233.5 283.47188 233.5 281.90625 C 233.5 278.84149 235.96719 276.375 239.03125 276.375 C 240.56328 276.375 241.96477 276.99579 242.96875 278 L 260.5 278 C 261.51089 276.93786 262.949 276.28125 264.53125 276.28125 C 267.59601 276.28125 270.0625 278.74844 270.0625 281.8125 C 270.0625 283.32923 269.45534 284.71724 268.46875 285.71875 L 268.46875 309.21875 L 310.4375 309.21875 L 310.4375 285.90625 C 309.39486 284.89735 308.75 283.47188 308.75 281.90625 C 308.75 278.84149 311.21719 276.375 314.28125 276.375 C 315.81328 276.375 317.21477 276.99579 318.21875 278 L 343.3125 278 C 344.32339 276.93786 345.7615 276.28125 347.34375 276.28125 C 350.40851 276.28125 352.90625 278.74844 352.90625 281.8125 C 352.90625 283.34453 352.28546 284.74602 351.28125 285.75 L 351.28125 309.21875 L 413.9375 309.21875 L 413.96875 50.84375 L 297.15625 50.84375 z "
     transform="matrix(0.01111111,0,0,0.01111111,0,-1.3264118e-7)"
     id="face2-cut" />
  <path
     sodipodi:nodetypes="ccccc"
     inkscape:connector-curvature="0"
     d="m 4.3700987,0.49832314 c -0.04057,0 -0.081649,0 -0.1235269,0 l 5.274e-4,3.01083056 0.125,0 -0.002,-3.01083056"
     style="fill:none;stroke:#0000ff;stroke-width:0.001;stroke-linecap:round;stroke-linejoin:round;stroke-miterlimit:4;stroke-dasharray:none"
     id="path2998" />
  <path
     id="face4-cut"
     style="fill:none;stroke:#0000ff;stroke-width:0.001;stroke-linecap:round;stroke-linejoin:round;stroke-miterlimit:4;stroke-dasharray:none"
     d="m 0.5606072,0.4952095 c -0.04057,0 -0.081649,0 -0.1235269,0 l 5.274e-4,3.0108306 0.125,0 -0.002,-3.0108306"
     inkscape:connector-curvature="0"
     sodipodi:nodetypes="ccccc" />
</svg>
