<?xml version="1.0" encoding="UTF-8" standalone="no"?>
<!-- Created with Inkscape (http://www.inkscape.org/) -->

<svg
   xmlns:dc="http://purl.org/dc/elements/1.1/"
   xmlns:cc="http://creativecommons.org/ns#"
   xmlns:rdf="http://www.w3.org/1999/02/22-rdf-syntax-ns#"
   xmlns:svg="http://www.w3.org/2000/svg"
   xmlns="http://www.w3.org/2000/svg"
   xmlns:sodipodi="http://sodipodi.sourceforge.net/DTD/sodipodi-0.dtd"
   xmlns:inkscape="http://www.inkscape.org/namespaces/inkscape"
   width="633.53125"
   height="630.625"
   id="svg2"
   version="1.1"
   inkscape:version="0.48.2 r9819"
   sodipodi:docname="workingArea.svg">
  <defs
     id="defs4" />
  <sodipodi:namedview
     id="base"
     pagecolor="#ffffff"
     bordercolor="#666666"
     borderopacity="1.0"
     inkscape:pageopacity="0.0"
     inkscape:pageshadow="2"
     inkscape:zoom="0.5"
     inkscape:cx="187.25995"
     inkscape:cy="281.81088"
     inkscape:document-units="in"
     inkscape:current-layer="layer1"
     showgrid="true"
     units="in"
     showguides="true"
     inkscape:guide-bbox="true"
     fit-margin-top="0"
     fit-margin-left="0"
     fit-margin-right="0"
     fit-margin-bottom="0"
     inkscape:window-width="1508"
     inkscape:window-height="1038"
     inkscape:window-x="49"
     inkscape:window-y="232"
     inkscape:window-maximized="0">
    <sodipodi:guide
       orientation="0,1"
       position="17.950893,495.63782"
       id="guide2997" />
    <sodipodi:guide
       orientation="0,1"
       position="-0.620536,224.92353"
       id="guide2999" />
    <sodipodi:guide
       orientation="1,0"
       position="498.55582,323.23692"
       id="guide3001" />
    <inkscape:grid
       type="xygrid"
       id="grid3073"
       units="in"
       empspacing="5"
       visible="true"
       enabled="true"
       snapvisiblegridlinesonly="true"
       spacingx="0.125in"
       spacingy="0.125in" />
  </sodipodi:namedview>
  <metadata
     id="metadata7">
    <rdf:RDF>
      <cc:Work
         rdf:about="">
        <dc:format>image/svg+xml</dc:format>
        <dc:type
           rdf:resource="http://purl.org/dc/dcmitype/StillImage" />
      </cc:Work>
    </rdf:RDF>
  </metadata>
  <g
     inkscape:label="Layer 1"
     inkscape:groupmode="layer"
     id="layer1"
     transform="translate(-44.90625,-287.37257)">
    <g
       transform="matrix(0,-1.2811175,1.2811175,0,-35.64038,-148.63093)"
       style="font-size:103.91543579px;font-style:normal;font-variant:normal;font-weight:bold;font-stretch:normal;text-align:center;line-height:125%;letter-spacing:0px;word-spacing:0px;writing-mode:lr-tb;text-anchor:middle;fill:#000000;fill-opacity:1;stroke:none;font-family:Courier 10 Pitch;-inkscape-font-specification:Courier 10 Pitch Bold"
       id="text2985">
      <path
         d="m -690.86643,132.0319 c 6.85841,-3.11746 9.97588,-7.58584 9.97588,-14.1325 0,-9.87196 -7.17018,-16.73039 -19.32827,-16.73039 -12.36593,0 -20.78309,5.09186 -20.78309,10.49546 0,2.59788 1.66265,4.57228 4.36445,4.57228 4.26053,0 8.00149,-4.67619 14.85991,-4.67619 4.98793,0 7.48191,2.80572 7.48191,8.1054 0,6.44275 -3.3253,7.378 -8.7289,8.1054 -3.42921,0.51958 -5.29969,0.20784 -5.29969,4.78011 0,4.26053 1.45482,5.19577 5.40361,5.29969 6.96232,0.31175 10.39154,1.87049 10.39154,9.76805 0,6.23492 -3.42922,9.87197 -9.87197,9.87197 -7.17015,0 -12.15811,-4.57228 -15.58731,-4.57228 -3.63704,0 -5.81927,2.39006 -5.81927,5.61143 0,5.19577 7.89759,10.0798 20.67918,10.0798 15.06772,0 23.79663,-8.20933 23.79663,-20.57526 0,-8.41714 -3.63705,-13.50901 -11.53461,-16.00297"
         id="path3024"
         inkscape:connector-curvature="0" />
      <path
         d="m -628.3548,132.0319 c 6.85841,-3.11746 9.97588,-7.58584 9.97588,-14.1325 0,-9.87196 -7.17018,-16.73039 -19.32827,-16.73039 -12.36593,0 -20.78309,5.09186 -20.78309,10.49546 0,2.59788 1.66265,4.57228 4.36445,4.57228 4.26053,0 8.0015,-4.67619 14.85991,-4.67619 4.98793,0 7.48191,2.80572 7.48191,8.1054 0,6.44275 -3.3253,7.378 -8.7289,8.1054 -3.4292,0.51958 -5.29969,0.20784 -5.29969,4.78011 0,4.26053 1.45482,5.19577 5.40361,5.29969 6.96232,0.31175 10.39154,1.87049 10.39154,9.76805 0,6.23492 -3.42922,9.87197 -9.87197,9.87197 -7.17015,0 -12.15811,-4.57228 -15.58731,-4.57228 -3.63704,0 -5.81927,2.39006 -5.81927,5.61143 0,5.19577 7.89759,10.0798 20.67918,10.0798 15.06772,0 23.79663,-8.20933 23.79663,-20.57526 0,-8.41714 -3.63705,-13.50901 -11.53461,-16.00297"
         id="path3026"
         inkscape:connector-curvature="0" />
      <path
         d="m -585.69102,158.01075 c 0,5.50752 4.26054,9.56022 10.59937,9.56022 6.44276,0 10.59938,-3.94879 10.59938,-9.56022 0,-5.61142 -4.15662,-9.56022 -10.59938,-9.56022 -6.33883,0 -10.59937,4.05271 -10.59937,9.56022"
         id="path3028"
         inkscape:connector-curvature="0" />
      <path
         d="m -512.68393,168.50621 c 15.17164,0 25.35537,-12.46987 25.35537,-33.6686 0,-21.19873 -10.18373,-33.6686 -25.35537,-33.6686 -15.06772,0 -25.14753,12.36596 -25.14753,33.6686 0,21.19873 10.07981,33.6686 25.14753,33.6686 m 0.10392,-55.9065 c 6.85841,0 11.63853,7.58584 11.63853,22.13399 0,14.65206 -4.78012,22.34182 -11.63853,22.34182 -6.96233,0 -11.63853,-7.79368 -11.63853,-22.34182 0,-14.44423 4.78012,-22.13399 11.63853,-22.13399"
         id="path3030"
         inkscape:connector-curvature="0" />
      <path
         d="m -461.08342,131.72015 3.11746,0 c 1.9744,0 2.39006,-0.93524 2.59789,-3.11746 l 1.55873,-18.8087 c 0,-0.20783 0,-0.41566 0,-0.62349 0,-1.66265 -0.83132,-2.49397 -2.39005,-2.49397 l -6.75451,0 c -1.55873,0 -2.28614,0.83132 -2.28614,2.49397 0,0.20783 0,0.41566 0,0.62349 l 1.55873,18.8087 c 0.20784,2.18222 0.6235,3.11746 2.59789,3.11746 m 18.91261,0 3.11746,0 c 1.97439,0 2.39006,-0.93524 2.59789,-3.11746 l 1.55873,-18.8087 c 0,-0.20783 0,-0.41566 0,-0.62349 0,-1.66265 -0.72741,-2.49397 -2.28614,-2.49397 l -6.7545,0 c -1.55873,0 -2.39006,0.83132 -2.39006,2.49397 0,0.20783 0,0.41566 0,0.62349 l 1.55873,18.8087 c 0.20783,2.18222 0.6235,3.11746 2.59789,3.11746"
         id="path3032"
         inkscape:connector-curvature="0" />
    </g>
    <g
       style="font-size:100.66153717px;font-style:normal;font-variant:normal;font-weight:bold;font-stretch:normal;text-align:center;line-height:125%;letter-spacing:0px;word-spacing:0px;writing-mode:lr-tb;text-anchor:middle;fill:#000000;fill-opacity:1;stroke:none;font-family:Courier 10 Pitch;-inkscape-font-specification:Courier 10 Pitch Bold"
       id="text2989"
       transform="matrix(1.3204952,0,0,1.3204952,89.037748,-268.65241)">
      <path
         d="m 107.31063,825.27399 c 6.64365,-3.01984 9.6635,-7.3483 9.6635,-13.68997 0,-9.56284 -6.94565,-16.20651 -18.723043,-16.20651 -11.978711,0 -20.132307,4.93242 -20.132307,10.16682 0,2.51654 1.610587,4.42911 4.227784,4.42911 4.127119,0 7.750945,-4.52977 14.3946,-4.52977 4.831746,0 7.247626,2.71786 7.247626,7.8516 0,6.24101 -3.22117,7.14697 -8.455564,7.8516 -3.321828,0.5033 -5.133739,0.20132 -5.133739,4.63043 0,4.12712 1.409266,5.03308 5.2344,5.13374 6.744313,0.30198 10.066153,1.81191 10.066153,9.46218 0,6.03969 -3.32184,9.56285 -9.562845,9.56285 -6.945639,0 -11.777403,-4.42911 -15.099231,-4.42911 -3.52315,0 -5.637046,2.31522 -5.637046,5.43572 0,5.03307 7.650289,9.76417 20.031646,9.76417 14.595906,0 23.051496,-7.95227 23.051496,-19.93098 0,-8.15358 -3.52317,-13.08601 -11.17343,-15.50188"
         id="path3035"
         inkscape:connector-curvature="0" />
      <path
         d="m 154.47685,807.05425 0,41.47256 -9.1602,0 c -4.12712,0 -6.24102,1.3086 -6.24102,5.2344 0,4.02645 2.1139,5.2344 6.24102,5.2344 l 28.99052,0 c 4.12712,0 6.24102,-1.20795 6.24102,-5.2344 0,-3.9258 -2.1139,-5.2344 -6.24102,-5.2344 l -7.95226,0 0,-48.51887 c 0,-3.22116 -0.8053,-4.73109 -3.62382,-4.73109 -1.00661,0 -2.41587,0.30199 -4.12712,0.80529 l -12.18005,3.32184 c -3.42248,0.90595 -5.03307,2.41587 -5.03307,4.73109 0,3.1205 1.50992,4.93241 4.22778,4.93241 0.50331,0 1.71125,-0.20132 3.32183,-0.60397 l 5.53639,-1.40926"
         id="path3037"
         inkscape:connector-curvature="0" />
      <path
         d="m 209.19269,850.43937 c 0,5.33506 4.12712,9.26087 10.26747,9.26087 6.24101,0 10.26748,-3.82515 10.26748,-9.26087 0,-5.43571 -4.02647,-9.26086 -10.26748,-9.26086 -6.14035,0 -10.26747,3.92581 -10.26747,9.26086"
         id="path3039"
         inkscape:connector-curvature="0" />
      <path
         d="m 271.0555,819.33496 0,-11.37475 23.45414,0 c 4.22778,0 5.43572,-1.40927 5.43572,-5.43573 0,-4.02645 -1.20794,-5.53638 -5.43572,-5.53638 l -32.21169,0 c -3.01985,0 -3.12051,1.50992 -3.12051,4.02646 l 0,23.75612 c 0,4.83175 1.3086,6.84499 5.13374,6.84499 3.72447,0 7.54962,-4.02646 13.38798,-4.02646 6.54299,0 10.67012,4.42911 10.67012,11.17343 0,6.94564 -4.22779,10.9721 -11.67673,10.9721 -6.03969,0 -10.77079,-2.81852 -14.29394,-2.81852 -3.12051,0 -5.63705,2.6172 -5.63705,5.73771 0,5.23439 6.44235,7.95226 18.62239,7.95226 17.01178,0 26.07133,-7.75095 26.07133,-21.94422 0,-12.68334 -7.95227,-21.13892 -19.72966,-21.13892 -3.01984,0 -6.543,0.60397 -10.67012,1.81191"
         id="path3041"
         inkscape:connector-curvature="0" />
      <path
         d="m 329.89845,824.97201 3.01985,0 c 1.91257,0 2.31521,-0.90596 2.51654,-3.01985 l 1.50992,-18.21974 c 0,-0.20132 0,-0.40264 0,-0.60397 0,-1.61058 -0.80529,-2.41587 -2.31521,-2.41587 l -6.543,0 c -1.50993,0 -2.21456,0.80529 -2.21456,2.41587 0,0.20133 0,0.40265 0,0.60397 l 1.50992,18.21974 c 0.20133,2.11389 0.60398,3.01985 2.51654,3.01985 m 18.3204,0 3.01985,0 c 1.91257,0 2.31521,-0.90596 2.51654,-3.01985 l 1.50992,-18.21974 c 0,-0.20132 0,-0.40264 0,-0.60397 0,-1.61058 -0.70463,-2.41587 -2.21455,-2.41587 l -6.543,0 c -1.50992,0 -2.31522,0.80529 -2.31522,2.41587 0,0.20133 0,0.40265 0,0.60397 l 1.50992,18.21974 c 0.20133,2.11389 0.60398,3.01985 2.51654,3.01985"
         id="path3043"
         inkscape:connector-curvature="0" />
    </g>
    <path
       style="opacity:0.71193417;color:#000000;fill:none;stroke:#ff0000;stroke-width:0.09000001;stroke-linecap:butt;stroke-linejoin:miter;stroke-miterlimit:4;stroke-opacity:1;stroke-dashoffset:0;marker:none;visibility:visible;display:inline;overflow:visible;enable-background:accumulate"
       d="m 224.78125,715.65625 c -1.54088,0 -3.04702,0.14315 -4.5,0.4375 -1.45298,0.29435 -2.85234,0.75341 -4.1875,1.3125 -1.33516,0.55909 -2.59382,1.23705 -3.78125,2.03125 -1.18743,0.7942 -2.30272,1.6878 -3.3125,2.6875 -1.00978,0.9997 -1.91654,2.10568 -2.71875,3.28125 -0.80221,1.17557 -1.49777,2.42817 -2.0625,3.75 -0.56473,1.32183 -1.01518,2.71778 -1.3125,4.15625 -0.29732,1.43847 -0.4375,2.91201 -0.4375,4.4375 0,1.52549 0.14018,3.03028 0.4375,4.46875 0.29732,1.43847 0.74777,2.80317 1.3125,4.125 0.56473,1.32183 1.26029,2.60568 2.0625,3.78125 0.80221,1.17557 1.70897,2.2503 2.71875,3.25 1.00978,0.9997 2.12507,1.92455 3.3125,2.71875 1.18743,0.7942 2.44609,1.47216 3.78125,2.03125 1.33516,0.55909 2.73452,0.9869 4.1875,1.28125 1.45298,0.29435 2.95912,0.4375 4.5,0.4375 1.54087,0 3.04702,-0.14315 4.5,-0.4375 1.45298,-0.29435 2.85234,-0.72216 4.1875,-1.28125 1.33516,-0.55909 2.59382,-1.23705 3.78125,-2.03125 1.18743,-0.7942 2.30272,-1.71905 3.3125,-2.71875 1.00978,-0.9997 1.91654,-2.07443 2.71875,-3.25 0.80221,-1.17557 1.49777,-2.45942 2.0625,-3.78125 0.56473,-1.32183 1.01518,-2.68653 1.3125,-4.125"
       id="path3071"
       transform="translate(0,-0.00243262)"
       inkscape:connector-curvature="0"
       sodipodi:nodetypes="cssssssssssssssssssssssc" />
    <path
       style="opacity:0.71193417;color:#000000;fill:none;stroke:#ff0000;stroke-width:0.09000001;stroke-linecap:butt;stroke-linejoin:miter;stroke-miterlimit:4;stroke-opacity:1;stroke-dashoffset:0;marker:none;visibility:visible;display:inline;overflow:visible;enable-background:accumulate"
       d="m 134.90625,287.4375 -89.9375,134.9375 0,315.6875 0,179.875 179.84375,0 318.65625,0 L 678.375,828 543.46875,738.0625 l -296.40625,0 c -0.0203,1.41402 -0.12972,2.8184 -0.40625,4.15625 -0.29732,1.43847 -0.74777,2.80317 -1.3125,4.125 -0.56473,1.32183 -1.26029,2.60568 -2.0625,3.78125 -0.80221,1.17557 -1.70897,2.2503 -2.71875,3.25 -1.00978,0.9997 -2.12507,1.92455 -3.3125,2.71875 -1.18743,0.7942 -2.44609,1.47216 -3.78125,2.03125 -1.33516,0.55909 -2.73452,0.9869 -4.1875,1.28125 -1.45298,0.29435 -2.95913,0.4375 -4.5,0.4375 -1.54088,0 -3.04702,-0.14315 -4.5,-0.4375 -1.45298,-0.29435 -2.85234,-0.72216 -4.1875,-1.28125 -1.33516,-0.55909 -2.59382,-1.23705 -3.78125,-2.03125 -1.18743,-0.7942 -2.30272,-1.71905 -3.3125,-2.71875 -1.00978,-0.9997 -1.91654,-2.07443 -2.71875,-3.25 -0.80221,-1.17557 -1.49777,-2.45942 -2.0625,-3.78125 -0.56473,-1.32183 -1.01518,-2.68653 -1.3125,-4.125 -0.29732,-1.43847 -0.4375,-2.94326 -0.4375,-4.46875 0,-1.52549 0.14018,-2.99903 0.4375,-4.4375 0.29732,-1.43847 0.74777,-2.83442 1.3125,-4.15625 0.56473,-1.32183 1.26029,-2.57443 2.0625,-3.75 0.80221,-1.17557 1.70897,-2.28155 2.71875,-3.28125 1.00978,-0.9997 2.12507,-1.8933 3.3125,-2.6875 1.18743,-0.7942 2.44609,-1.47216 3.78125,-2.03125 1.33516,-0.55909 2.73452,-1.01815 4.1875,-1.3125 1.45298,-0.29435 2.95912,-0.4375 4.5,-0.4375 0.0106,0 0.0206,-10e-6 0.0312,0 l 0,-293.28125 z"
       id="rect2995"
       transform="translate(0,-0.00243262)"
       inkscape:connector-curvature="0"
       sodipodi:nodetypes="cccccccccssssssssssssssssssssssssccc" />
  </g>
</svg>
